<?xml version="1.0" encoding="UTF-8" standalone="no"?>
<!DOCTYPE svg PUBLIC "-//W3C//DTD SVG 1.0//EN" "http://www.w3.org/TR/2001/PR-SVG-20010719/DTD/svg10.dtd">
<svg width="7cm" height="8cm" viewBox="428 110 140 145" xmlns="http://www.w3.org/2000/svg" xmlns:xlink="http://www.w3.org/1999/xlink">
  <g>
    <path style="fill: #ffffff" d="M 459.65 151.547 C 448.883,151.064 428,161.21 430.937,182.949 C 433.873,204.689 447.904,209.52 453.777,203.24 C 459.65,196.96 444.641,233.676 473.355,243.338 C 502.068,253 516.751,237.541 512.509,226.429 C 508.267,215.318 537.634,252.517 551.338,231.26 C 565.042,210.003 537.307,189.713 543.181,192.612 C 549.054,195.51 567,191.645 561.127,155.412 C 555.253,119.179 502.394,147.199 508.267,141.885 C 514.141,136.571 499.458,110 481.186,115.314 C 462.913,120.628 461.617,130.272 459.659,151.529 L 459.65,151.547z"/>
    <path style="fill: none; fill-opacity:0; stroke-width: 2; stroke: #444444" d="M 459.65 151.547 C 448.883,151.064 428,161.21 430.937,182.949 C 433.873,204.689 447.904,209.52 453.777,203.24 C 459.65,196.96 444.641,233.676 473.355,243.338 C 502.068,253 516.751,237.541 512.509,226.429 C 508.267,215.318 537.634,252.517 551.338,231.26 C 565.042,210.003 537.307,189.713 543.181,192.612 C 549.054,195.51 567,191.645 561.127,155.412 C 555.253,119.179 502.394,147.199 508.267,141.885 C 514.141,136.571 499.458,110 481.186,115.314 C 462.913,120.628 461.617,130.272 459.659,151.529 L 459.65,151.547"/>
    <text style="fill: #000000;text-anchor:middle;font-size:12.8;font-family:sanserif;font-style:normal;font-weight:normal" x="501.226" y="188.021">
      <tspan x="501.226" y="188.021"></tspan>
    </text>
  </g>
  <g>
    <rect style="fill: #b3b3b3" x="451.662" y="126.025" width="23.3644" height="17.5233"/>
    <rect style="fill: none; fill-opacity:0; stroke-width: 1; stroke: #000000" x="451.662" y="126.025" width="23.3644" height="17.5233"/>
    <rect style="fill: #000000" x="454.193" y="128.556" width="18.3021" height="12.0716"/>
    <polygon style="fill: #b3b3b3" points="454.826,143.548 466.849,143.548 466.849,146.274 455.459,146.274 "/>
    <polygon style="fill: none; fill-opacity:0; stroke-width: 1; stroke: #000000" points="454.826,143.548 466.849,143.548 466.849,146.274 455.459,146.274 "/>
    <polygon style="fill: #b3b3b3" points="466.849,143.548 471.862,143.548 471.23,146.274 466.849,146.274 "/>
    <polygon style="fill: none; fill-opacity:0; stroke-width: 1; stroke: #000000" points="466.849,143.548 471.862,143.548 471.23,146.274 466.849,146.274 "/>
    <rect style="fill: #ffffff" x="467.667" y="144.366" width="1.09034" height="1.09034"/>
    <rect style="fill: none; fill-opacity:0; stroke-width: 0.5; stroke: #000000" x="467.667" y="144.366" width="1.09034" height="1.09034"/>
    <polygon style="fill: #b3b3b3" points="461.008,146.274 465.681,146.274 465.681,147.637 468.017,147.637 468.017,149 458.671,149 458.671,147.637 461.008,147.637 "/>
    <polygon style="fill: none; fill-opacity:0; stroke-width: 1; stroke: #000000" points="461.008,146.274 465.681,146.274 465.681,147.637 468.017,147.637 468.017,149 458.671,149 458.671,147.637 461.008,147.637 "/>
    <text style="fill: #000000;text-anchor:middle;font-size:12.8;font-family:sanserif;font-style:normal;font-weight:normal" x="463.344" y="161.779">
      <tspan x="463.344" y="161.779"></tspan>
    </text>
  </g>
  <g>
    <rect style="fill: #b3b3b3" x="452.2" y="213.5" width="23.3644" height="17.5233"/>
    <rect style="fill: none; fill-opacity:0; stroke-width: 1; stroke: #000000" x="452.2" y="213.5" width="23.3644" height="17.5233"/>
    <rect style="fill: #000000" x="454.731" y="216.031" width="18.3021" height="12.0716"/>
    <polygon style="fill: #b3b3b3" points="455.364,231.023 467.387,231.023 467.387,233.749 455.997,233.749 "/>
    <polygon style="fill: none; fill-opacity:0; stroke-width: 1; stroke: #000000" points="455.364,231.023 467.387,231.023 467.387,233.749 455.997,233.749 "/>
    <polygon style="fill: #b3b3b3" points="467.387,231.023 472.4,231.023 471.768,233.749 467.387,233.749 "/>
    <polygon style="fill: none; fill-opacity:0; stroke-width: 1; stroke: #000000" points="467.387,231.023 472.4,231.023 471.768,233.749 467.387,233.749 "/>
    <rect style="fill: #ffffff" x="468.205" y="231.841" width="1.09034" height="1.09034"/>
    <rect style="fill: none; fill-opacity:0; stroke-width: 0.5; stroke: #000000" x="468.205" y="231.841" width="1.09034" height="1.09034"/>
    <polygon style="fill: #b3b3b3" points="461.546,233.749 466.219,233.749 466.219,235.112 468.555,235.112 468.555,236.475 459.209,236.475 459.209,235.112 461.546,235.112 "/>
    <polygon style="fill: none; fill-opacity:0; stroke-width: 1; stroke: #000000" points="461.546,233.749 466.219,233.749 466.219,235.112 468.555,235.112 468.555,236.475 459.209,236.475 459.209,235.112 461.546,235.112 "/>
    <text style="fill: #000000;text-anchor:middle;font-size:12.8;font-family:sanserif;font-style:normal;font-weight:normal" x="463.882" y="249.254">
      <tspan x="463.882" y="249.254"></tspan>
    </text>
  </g>
  <g>
    <rect style="fill: #b3b3b3" x="515.9" y="214" width="23.3644" height="17.5233"/>
    <rect style="fill: none; fill-opacity:0; stroke-width: 1; stroke: #000000" x="515.9" y="214" width="23.3644" height="17.5233"/>
    <rect style="fill: #000000" x="518.431" y="216.531" width="18.3021" height="12.0716"/>
    <polygon style="fill: #b3b3b3" points="519.064,231.523 531.087,231.523 531.087,234.249 519.697,234.249 "/>
    <polygon style="fill: none; fill-opacity:0; stroke-width: 1; stroke: #000000" points="519.064,231.523 531.087,231.523 531.087,234.249 519.697,234.249 "/>
    <polygon style="fill: #b3b3b3" points="531.087,231.523 536.1,231.523 535.468,234.249 531.087,234.249 "/>
    <polygon style="fill: none; fill-opacity:0; stroke-width: 1; stroke: #000000" points="531.087,231.523 536.1,231.523 535.468,234.249 531.087,234.249 "/>
    <rect style="fill: #ffffff" x="531.905" y="232.341" width="1.09034" height="1.09034"/>
    <rect style="fill: none; fill-opacity:0; stroke-width: 0.5; stroke: #000000" x="531.905" y="232.341" width="1.09034" height="1.09034"/>
    <polygon style="fill: #b3b3b3" points="525.246,234.249 529.919,234.249 529.919,235.612 532.255,235.612 532.255,236.975 522.909,236.975 522.909,235.612 525.246,235.612 "/>
    <polygon style="fill: none; fill-opacity:0; stroke-width: 1; stroke: #000000" points="525.246,234.249 529.919,234.249 529.919,235.612 532.255,235.612 532.255,236.975 522.909,236.975 522.909,235.612 525.246,235.612 "/>
    <text style="fill: #000000;text-anchor:middle;font-size:12.8;font-family:sanserif;font-style:normal;font-weight:normal" x="527.582" y="249.754">
      <tspan x="527.582" y="249.754"></tspan>
    </text>
  </g>
  <g>
    <rect style="fill: #b3b3b3" x="515.7" y="126.25" width="23.3644" height="17.5233"/>
    <rect style="fill: none; fill-opacity:0; stroke-width: 1; stroke: #000000" x="515.7" y="126.25" width="23.3644" height="17.5233"/>
    <rect style="fill: #000000" x="518.231" y="128.781" width="18.3021" height="12.0716"/>
    <polygon style="fill: #b3b3b3" points="518.864,143.773 530.887,143.773 530.887,146.499 519.497,146.499 "/>
    <polygon style="fill: none; fill-opacity:0; stroke-width: 1; stroke: #000000" points="518.864,143.773 530.887,143.773 530.887,146.499 519.497,146.499 "/>
    <polygon style="fill: #b3b3b3" points="530.887,143.773 535.9,143.773 535.268,146.499 530.887,146.499 "/>
    <polygon style="fill: none; fill-opacity:0; stroke-width: 1; stroke: #000000" points="530.887,143.773 535.9,143.773 535.268,146.499 530.887,146.499 "/>
    <rect style="fill: #ffffff" x="531.705" y="144.591" width="1.09034" height="1.09034"/>
    <rect style="fill: none; fill-opacity:0; stroke-width: 0.5; stroke: #000000" x="531.705" y="144.591" width="1.09034" height="1.09034"/>
    <polygon style="fill: #b3b3b3" points="525.046,146.499 529.719,146.499 529.719,147.862 532.055,147.862 532.055,149.225 522.709,149.225 522.709,147.862 525.046,147.862 "/>
    <polygon style="fill: none; fill-opacity:0; stroke-width: 1; stroke: #000000" points="525.046,146.499 529.719,146.499 529.719,147.862 532.055,147.862 532.055,149.225 522.709,149.225 522.709,147.862 525.046,147.862 "/>
    <text style="fill: #000000;text-anchor:middle;font-size:12.8;font-family:sanserif;font-style:normal;font-weight:normal" x="527.382" y="162.004">
      <tspan x="527.382" y="162.004"></tspan>
    </text>
  </g>
  <line style="fill: none; fill-opacity:0; stroke-width: 12; stroke: #000000" x1="527.555" y1="213.662" x2="527.409" y2="149.563"/>
  <line style="fill: none; fill-opacity:0; stroke-width: 12; stroke: #000000" x1="463.809" y1="213.007" x2="463.418" y2="149.493"/>
  <line style="fill: none; fill-opacity:0; stroke-width: 12; stroke: #000000" x1="518.823" y1="213.492" x2="469.994" y2="146.619"/>
</svg>
