<?xml version="1.0" encoding="UTF-8" standalone="no"?>
<!DOCTYPE svg PUBLIC "-//W3C//DTD SVG 1.0//EN" "http://www.w3.org/TR/2001/PR-SVG-20010719/DTD/svg10.dtd">
<svg width="33cm" height="30cm" viewBox="1320 -990 641 582" xmlns="http://www.w3.org/2000/svg" xmlns:xlink="http://www.w3.org/1999/xlink">
  <g>
    <rect style="fill: #ffffff" x="1742" y="-989" width="180.4" height="28"/>
    <rect style="fill: none; fill-opacity:0; stroke-width: 2; stroke: #000000" x="1742" y="-989" width="180.4" height="28"/>
    <text style="fill: #000000;text-anchor:middle;font-size:16;font-family:sanserif;font-style:italic;font-weight:700" x="1832.2" y="-970">neubot.application</text>
    <rect style="fill: #ffffff" x="1742" y="-961" width="180.4" height="8"/>
    <rect style="fill: none; fill-opacity:0; stroke-width: 2; stroke: #000000" x="1742" y="-961" width="180.4" height="8"/>
  </g>
  <g>
    <rect style="fill: #ffffff" x="1721.5" y="-884.2" width="199.1" height="28"/>
    <rect style="fill: none; fill-opacity:0; stroke-width: 2; stroke: #000000" x="1721.5" y="-884.2" width="199.1" height="28"/>
    <text style="fill: #000000;text-anchor:middle;font-size:16;font-family:sanserif;font-style:normal;font-weight:700" x="1821.05" y="-865.2">neubot.http.protocol</text>
    <rect style="fill: #ffffff" x="1721.5" y="-856.2" width="199.1" height="36"/>
    <rect style="fill: none; fill-opacity:0; stroke-width: 2; stroke: #000000" x="1721.5" y="-856.2" width="199.1" height="36"/>
    <text style="fill: #000000;text-anchor:start;font-size:12.8;font-family:monospace;font-style:normal;font-weight:normal" x="1724.5" y="-842.2">+application</text>
    <text style="fill: #000000;text-anchor:start;font-size:12.8;font-family:monospace;font-style:normal;font-weight:normal" x="1724.5" y="-826.2">+adaptor</text>
  </g>
  <g>
    <rect style="fill: #ffffff" x="1725.5" y="-765.2" width="195.15" height="28"/>
    <rect style="fill: none; fill-opacity:0; stroke-width: 2; stroke: #000000" x="1725.5" y="-765.2" width="195.15" height="28"/>
    <text style="fill: #000000;text-anchor:middle;font-size:16;font-family:sanserif;font-style:normal;font-weight:700" x="1823.08" y="-746.2">neubot.http.adaptor</text>
    <rect style="fill: #ffffff" x="1725.5" y="-737.2" width="195.15" height="36"/>
    <rect style="fill: none; fill-opacity:0; stroke-width: 2; stroke: #000000" x="1725.5" y="-737.2" width="195.15" height="36"/>
    <text style="fill: #000000;text-anchor:start;font-size:12.8;font-family:monospace;font-style:normal;font-weight:normal" x="1728.5" y="-723.2">+protocol</text>
    <text style="fill: #000000;text-anchor:start;font-size:12.8;font-family:monospace;font-style:normal;font-weight:normal" x="1728.5" y="-707.2">+connection</text>
  </g>
  <g>
    <rect style="fill: #ffffff" x="1663.5" y="-638.2" width="259.4" height="28"/>
    <rect style="fill: none; fill-opacity:0; stroke-width: 2; stroke: #000000" x="1663.5" y="-638.2" width="259.4" height="28"/>
    <text style="fill: #000000;text-anchor:middle;font-size:16;font-family:sanserif;font-style:italic;font-weight:700" x="1793.2" y="-619.2">neubot.network.connection</text>
    <rect style="fill: #ffffff" x="1663.5" y="-610.2" width="259.4" height="36"/>
    <rect style="fill: none; fill-opacity:0; stroke-width: 2; stroke: #000000" x="1663.5" y="-610.2" width="259.4" height="36"/>
    <text style="fill: #000000;text-anchor:start;font-size:12.8;font-family:monospace;font-style:normal;font-weight:normal" x="1666.5" y="-596.2">+adaptor</text>
    <text style="fill: #000000;text-anchor:start;font-size:12.8;font-family:monospace;font-style:normal;font-weight:normal" x="1666.5" y="-580.2">+poller</text>
  </g>
  <g>
    <rect style="fill: #ffffff" x="1341.5" y="-445.2" width="212.4" height="28"/>
    <rect style="fill: none; fill-opacity:0; stroke-width: 2; stroke: #000000" x="1341.5" y="-445.2" width="212.4" height="28"/>
    <text style="fill: #000000;text-anchor:middle;font-size:16;font-family:sanserif;font-style:normal;font-weight:700" x="1447.7" y="-426.2">neubot.network.poller</text>
    <rect style="fill: #ffffff" x="1341.5" y="-417.2" width="212.4" height="8"/>
    <rect style="fill: none; fill-opacity:0; stroke-width: 2; stroke: #000000" x="1341.5" y="-417.2" width="212.4" height="8"/>
  </g>
  <g>
    <polyline style="fill: none; fill-opacity:0; stroke-width: 2; stroke: #000000" points="1920.6,-830.2 1960.25,-830.2 1960.25,-751.2 1925.12,-751.2 "/>
    <polyline style="fill: none; fill-opacity:0; stroke-width: 2; stroke: #000000" points="1932.89,-756.2 1922.89,-751.2 1932.89,-746.2 "/>
  </g>
  <g>
    <polyline style="fill: none; fill-opacity:0; stroke-width: 2; stroke: #000000" points="1920.65,-711.2 1960.25,-711.2 1960.25,-624.2 1927.37,-624.2 "/>
    <polyline style="fill: none; fill-opacity:0; stroke-width: 2; stroke: #000000" points="1935.14,-629.2 1925.14,-624.2 1935.14,-619.2 "/>
  </g>
  <g>
    <polyline style="fill: none; fill-opacity:0; stroke-width: 2; stroke: #000000" points="1922.9,-584.2 1960,-584.2 1960,-431.2 1558.37,-431.2 "/>
    <polyline style="fill: none; fill-opacity:0; stroke-width: 2; stroke: #000000" points="1566.14,-436.2 1556.14,-431.2 1566.14,-426.2 "/>
  </g>
  <g>
    <polyline style="fill: none; fill-opacity:0; stroke-width: 2; stroke: #000000" points="1663.5,-600.2 1579,-600.2 1579,-751.2 1721.03,-751.2 "/>
    <polyline style="fill: none; fill-opacity:0; stroke-width: 2; stroke: #000000" points="1713.26,-746.2 1723.26,-751.2 1713.26,-756.2 "/>
  </g>
  <g>
    <polyline style="fill: none; fill-opacity:0; stroke-width: 2; stroke: #000000" points="1725.5,-727.2 1620,-727.2 1620,-870.2 1717.03,-870.2 "/>
    <polyline style="fill: none; fill-opacity:0; stroke-width: 2; stroke: #000000" points="1709.26,-865.2 1719.26,-870.2 1709.26,-875.2 "/>
  </g>
  <g>
    <rect style="fill: #ffffff" x="1341.5" y="-884.2" width="214.3" height="28"/>
    <rect style="fill: none; fill-opacity:0; stroke-width: 2; stroke: #000000" x="1341.5" y="-884.2" width="214.3" height="28"/>
    <text style="fill: #000000;text-anchor:middle;font-size:16;font-family:sanserif;font-style:normal;font-weight:700" x="1448.65" y="-865.2">neubot.http.connector</text>
    <rect style="fill: #ffffff" x="1341.5" y="-856.2" width="214.3" height="36"/>
    <rect style="fill: none; fill-opacity:0; stroke-width: 2; stroke: #000000" x="1341.5" y="-856.2" width="214.3" height="36"/>
    <text style="fill: #000000;text-anchor:start;font-size:12.8;font-family:monospace;font-style:normal;font-weight:normal" x="1344.5" y="-842.2">+application</text>
    <text style="fill: #000000;text-anchor:start;font-size:12.8;font-family:monospace;font-style:normal;font-weight:normal" x="1344.5" y="-826.2">+poller</text>
  </g>
  <g>
    <polyline style="fill: none; fill-opacity:0; stroke-width: 2; stroke: #000000" points="1341.5,-846.2 1321.5,-846.2 1321.5,-975 1737.53,-975 "/>
    <polyline style="fill: none; fill-opacity:0; stroke-width: 2; stroke: #000000" points="1729.76,-970 1739.76,-975 1729.76,-980 "/>
  </g>
  <g>
    <polyline style="fill: none; fill-opacity:0; stroke-width: 2; stroke: #000000" points="1341.5,-830.2 1321.5,-830.2 1321.5,-431.2 1331.76,-431.2 "/>
    <polygon style="fill: #000000" points="1339.26,-431.2 1329.26,-426.2 1331.76,-431.2 1329.26,-436.2 "/>
    <polygon style="fill: none; fill-opacity:0; stroke-width: 2; stroke: #000000" points="1339.26,-431.2 1329.26,-426.2 1331.76,-431.2 1329.26,-436.2 "/>
  </g>
  <g>
    <polyline style="fill: none; fill-opacity:0; stroke-width: 2; stroke: #000000" points="1721.5,-846.2 1661,-846.2 1661,-975 1737.53,-975 "/>
    <polyline style="fill: none; fill-opacity:0; stroke-width: 2; stroke: #000000" points="1729.76,-970 1739.76,-975 1729.76,-980 "/>
  </g>
  <g>
    <line style="fill: none; fill-opacity:0; stroke-width: 2; stroke-dasharray: 8; stroke: #000000" x1="1447.74" y1="-446.201" x2="1448.56" y2="-812.493"/>
    <polyline style="fill: none; fill-opacity:0; stroke-width: 2; stroke: #000000" points="1453.53,-799.834 1448.57,-815.845 1443.53,-799.857 "/>
    <text style="fill: #000000;text-anchor:start;font-size:12.7998;font-family:monospace;font-style:normal;font-weight:normal" x="1458.05" y="-801.15">{poll-able}</text>
  </g>
  <g>
    <line style="fill: none; fill-opacity:0; stroke-width: 2; stroke-dasharray: 8; stroke: #000000" x1="1484.35" y1="-446.188" x2="1723.54" y2="-570.11"/>
    <polyline style="fill: none; fill-opacity:0; stroke-width: 2; stroke: #000000" points="1714.61,-559.853 1726.52,-571.652 1710.01,-568.732 "/>
    <text style="fill: #000000;text-anchor:start;font-size:12.7998;font-family:monospace;font-style:normal;font-weight:normal" x="1722.75" y="-555.65">{poll-able}</text>
  </g>
</svg>
