<?xml version="1.0" encoding="UTF-8" standalone="no"?>
<!DOCTYPE svg PUBLIC "-//W3C//DTD SVG 1.0//EN" "http://www.w3.org/TR/2001/PR-SVG-20010719/DTD/svg10.dtd">
<svg width="67cm" height="47cm" viewBox="1639 -729 1323 935" xmlns="http://www.w3.org/2000/svg" xmlns:xlink="http://www.w3.org/1999/xlink">
  <g>
    <rect style="fill: #ffffff" x="1760.11" y="-609.8" width="163.6" height="36"/>
    <rect style="fill: none; fill-opacity:0; stroke-width: 4; stroke: #000000" x="1760.11" y="-609.8" width="163.6" height="36"/>
    <text style="fill: #000000;text-anchor:middle;font-size:12.8;font-family:sanserif;font-style:normal;font-weight:normal" x="1841.91" y="-587.9">
      <tspan x="1841.91" y="-587.9">neubot.http.connector</tspan>
    </text>
    <line style="fill: none; fill-opacity:0; stroke-width: 1; stroke: #000000" x1="1770.11" y1="-584.85" x2="1913.71" y2="-584.85"/>
  </g>
  <g>
    <rect style="fill: #ffffff" x="1815.82" y="-498.8" width="161.4" height="36"/>
    <rect style="fill: none; fill-opacity:0; stroke-width: 2; stroke: #000000" x="1815.82" y="-498.8" width="161.4" height="36"/>
    <text style="fill: #000000;text-anchor:middle;font-size:12.8;font-family:sanserif;font-style:normal;font-weight:normal" x="1896.52" y="-476.9">
      <tspan x="1896.52" y="-476.9">neubot.network.poller</tspan>
    </text>
    <line style="fill: none; fill-opacity:0; stroke-width: 1; stroke: #000000" x1="1825.82" y1="-473.85" x2="1967.22" y2="-473.85"/>
  </g>
  <g>
    <line style="fill: none; fill-opacity:0; stroke-width: 4; stroke: #000000" x1="1851.26" y1="-572.796" x2="1881.87" y2="-510.571"/>
    <polygon style="fill: #000000" points="1877.39,-508.364 1886.29,-501.598 1886.36,-512.778 "/>
    <polygon style="fill: none; fill-opacity:0; stroke-width: 4; stroke: #000000" points="1877.39,-508.364 1886.29,-501.598 1886.36,-512.778 "/>
  </g>
  <text style="fill: #000000;text-anchor:start;font-size:9.03111;font-family:sanserif;font-style:normal;font-weight:normal" x="1760.82" y="-531.4">
    <tspan x="1760.82" y="-531.4">register_func(self.init)</tspan>
  </text>
  <g>
    <rect style="fill: #ffffff" x="1987.22" y="-498.6" width="161.4" height="36"/>
    <rect style="fill: none; fill-opacity:0; stroke-width: 2; stroke: #000000" x="1987.22" y="-498.6" width="161.4" height="36"/>
    <text style="fill: #000000;text-anchor:middle;font-size:12.8;font-family:sanserif;font-style:normal;font-weight:normal" x="2067.92" y="-476.7">
      <tspan x="2067.92" y="-476.7">neubot.network.poller</tspan>
    </text>
    <line style="fill: none; fill-opacity:0; stroke-width: 1; stroke: #000000" x1="1997.22" y1="-473.65" x2="2138.62" y2="-473.65"/>
  </g>
  <g>
    <rect style="fill: #ffffff" x="2038.42" y="-610" width="163.6" height="36"/>
    <rect style="fill: none; fill-opacity:0; stroke-width: 4; stroke: #000000" x="2038.42" y="-610" width="163.6" height="36"/>
    <text style="fill: #000000;text-anchor:middle;font-size:12.8;font-family:sanserif;font-style:normal;font-weight:normal" x="2120.22" y="-588.1">
      <tspan x="2120.22" y="-588.1">neubot.http.connector</tspan>
    </text>
    <line style="fill: none; fill-opacity:0; stroke-width: 1; stroke: #000000" x1="2048.42" y1="-585.05" x2="2192.02" y2="-585.05"/>
  </g>
  <g>
    <line style="fill: none; fill-opacity:0; stroke-width: 2; stroke: #000000" x1="2076.84" y1="-499.597" x2="2106.63" y2="-563.045"/>
    <polygon style="fill: #000000" points="2111.15,-560.921 2110.88,-572.098 2102.1,-565.17 "/>
    <polygon style="fill: none; fill-opacity:0; stroke-width: 2; stroke: #000000" points="2111.15,-560.921 2110.88,-572.098 2102.1,-565.17 "/>
  </g>
  <g>
    <line style="fill: none; fill-opacity:0; stroke-width: 4; stroke: #000000" x1="2129.38" y1="-611.005" x2="2157.89" y2="-670.196"/>
    <polygon style="fill: #000000" points="2162.39,-668.026 2162.23,-679.205 2153.38,-672.366 "/>
    <polygon style="fill: none; fill-opacity:0; stroke-width: 4; stroke: #000000" points="2162.39,-668.026 2162.23,-679.205 2153.38,-672.366 "/>
  </g>
  <text style="fill: #000000;text-anchor:start;font-size:9.03111;font-family:sanserif;font-style:normal;font-weight:normal" x="2062.78" y="-534.4">
    <tspan x="2062.78" y="-534.4">init()</tspan>
  </text>
  <text style="fill: #000000;text-anchor:start;font-size:9.03111;font-family:sanserif;font-style:normal;font-weight:normal" x="2154.78" y="-637.7">
    <tspan x="2154.78" y="-637.7">connect()</tspan>
  </text>
  <g>
    <rect style="fill: #ffffff" x="2168.92" y="-498.8" width="161.4" height="36"/>
    <rect style="fill: none; fill-opacity:0; stroke-width: 2; stroke: #000000" x="2168.92" y="-498.8" width="161.4" height="36"/>
    <text style="fill: #000000;text-anchor:middle;font-size:12.8;font-family:sanserif;font-style:normal;font-weight:normal" x="2249.62" y="-476.9">
      <tspan x="2249.62" y="-476.9">neubot.network.poller</tspan>
    </text>
    <line style="fill: none; fill-opacity:0; stroke-width: 1; stroke: #000000" x1="2178.92" y1="-473.85" x2="2320.32" y2="-473.85"/>
  </g>
  <g>
    <rect style="fill: #ffffff" x="2220.12" y="-610.2" width="163.6" height="36"/>
    <rect style="fill: none; fill-opacity:0; stroke-width: 4; stroke: #000000" x="2220.12" y="-610.2" width="163.6" height="36"/>
    <text style="fill: #000000;text-anchor:middle;font-size:12.8;font-family:sanserif;font-style:normal;font-weight:normal" x="2301.92" y="-588.3">
      <tspan x="2301.92" y="-588.3">neubot.http.connector</tspan>
    </text>
    <line style="fill: none; fill-opacity:0; stroke-width: 1; stroke: #000000" x1="2230.12" y1="-585.25" x2="2373.72" y2="-585.25"/>
  </g>
  <g>
    <line style="fill: none; fill-opacity:0; stroke-width: 2; stroke: #000000" x1="2258.54" y1="-499.797" x2="2288.33" y2="-563.245"/>
    <polygon style="fill: #000000" points="2292.85,-561.121 2292.58,-572.298 2283.8,-565.37 "/>
    <polygon style="fill: none; fill-opacity:0; stroke-width: 2; stroke: #000000" points="2292.85,-561.121 2292.58,-572.298 2283.8,-565.37 "/>
  </g>
  <text style="fill: #000000;text-anchor:start;font-size:9.03111;font-family:sanserif;font-style:normal;font-weight:normal" x="2249.48" y="-535.6">
    <tspan x="2249.48" y="-535.6">init()</tspan>
  </text>
  <g>
    <path style="fill: none; fill-opacity:0; stroke-width: 4; stroke: #000000" d="M 2304.67 -573.214 C 2308.17,-549.014 2312.87,-527.99 2284.67,-506.949"/>
    <polygon style="fill: #000000" points="2278.66,-502.464 2283.68,-512.452 2284.67,-506.949 2289.66,-504.436 "/>
    <polygon style="fill: none; fill-opacity:0; stroke-width: 4; stroke: #000000" points="2278.66,-502.464 2283.68,-512.452 2284.67,-506.949 2289.66,-504.436 "/>
  </g>
  <text style="fill: #000000;text-anchor:start;font-size:9.03111;font-family:sanserif;font-style:normal;font-weight:normal" x="2302.92" y="-512.8">
    <tspan x="2302.92" y="-512.8">set_writable(self)</tspan>
  </text>
  <text style="fill: #000000;text-anchor:start;font-size:36.1244;font-family:sanserif;font-style:normal;font-weight:normal" x="1887.42" y="-421">
    <tspan x="1887.42" y="-421">1</tspan>
  </text>
  <text style="fill: #000000;text-anchor:start;font-size:36.1244;font-family:sanserif;font-style:normal;font-weight:normal" x="2043.92" y="-420.65">
    <tspan x="2043.92" y="-420.65">2.1</tspan>
  </text>
  <text style="fill: #000000;text-anchor:start;font-size:36.1244;font-family:sanserif;font-style:normal;font-weight:normal" x="2225.92" y="-420.65">
    <tspan x="2225.92" y="-420.65">2.2</tspan>
  </text>
  <g>
    <line style="fill: none; fill-opacity:0; stroke-width: 2; stroke: #000000" x1="1795.81" y1="-689.203" x2="1828.21" y2="-620.74"/>
    <polygon style="fill: #000000" points="1823.69,-618.602 1832.49,-611.701 1832.73,-622.879 "/>
    <polygon style="fill: none; fill-opacity:0; stroke-width: 2; stroke: #000000" points="1823.69,-618.602 1832.49,-611.701 1832.73,-622.879 "/>
  </g>
  <text style="fill: #000000;text-anchor:start;font-size:9.03111;font-family:sanserif;font-style:normal;font-weight:normal" x="1747.92" y="-648.8">
    <tspan x="1747.92" y="-648.8">&lt;&lt;create&gt;&gt;</tspan>
  </text>
  <g>
    <rect style="fill: #ffffff" x="2110.42" y="-710" width="119.8" height="28"/>
    <rect style="fill: none; fill-opacity:0; stroke-width: 2; stroke: #000000" x="2110.42" y="-710" width="119.8" height="28"/>
    <rect style="fill: #ffffff" x="2110.42" y="-728" width="30" height="18"/>
    <rect style="fill: none; fill-opacity:0; stroke-width: 2; stroke: #000000" x="2110.42" y="-728" width="30" height="18"/>
    <text style="fill: #000000;text-anchor:start;font-size:12.8;font-family:monospace;font-style:normal;font-weight:normal" x="2116.42" y="-692.1">
      <tspan x="2116.42" y="-692.1">neubot.network</tspan>
    </text>
  </g>
  <g>
    <rect style="fill: #ffffff" x="2345.92" y="-498.8" width="161.4" height="36"/>
    <rect style="fill: none; fill-opacity:0; stroke-width: 2; stroke: #000000" x="2345.92" y="-498.8" width="161.4" height="36"/>
    <text style="fill: #000000;text-anchor:middle;font-size:12.8;font-family:sanserif;font-style:normal;font-weight:normal" x="2426.62" y="-476.9">
      <tspan x="2426.62" y="-476.9">neubot.network.poller</tspan>
    </text>
    <line style="fill: none; fill-opacity:0; stroke-width: 1; stroke: #000000" x1="2355.92" y1="-473.85" x2="2497.32" y2="-473.85"/>
  </g>
  <g>
    <rect style="fill: #ffffff" x="2397.12" y="-610.2" width="163.6" height="36"/>
    <rect style="fill: none; fill-opacity:0; stroke-width: 4; stroke: #000000" x="2397.12" y="-610.2" width="163.6" height="36"/>
    <text style="fill: #000000;text-anchor:middle;font-size:12.8;font-family:sanserif;font-style:normal;font-weight:normal" x="2478.92" y="-588.3">
      <tspan x="2478.92" y="-588.3">neubot.http.connector</tspan>
    </text>
    <line style="fill: none; fill-opacity:0; stroke-width: 1; stroke: #000000" x1="2407.12" y1="-585.25" x2="2550.72" y2="-585.25"/>
  </g>
  <g>
    <line style="fill: none; fill-opacity:0; stroke-width: 2; stroke: #000000" x1="2435.54" y1="-499.797" x2="2465.33" y2="-563.245"/>
    <polygon style="fill: #000000" points="2469.85,-561.121 2469.58,-572.298 2460.8,-565.37 "/>
    <polygon style="fill: none; fill-opacity:0; stroke-width: 2; stroke: #000000" points="2469.85,-561.121 2469.58,-572.298 2460.8,-565.37 "/>
  </g>
  <text style="fill: #000000;text-anchor:start;font-size:9.03111;font-family:sanserif;font-style:normal;font-weight:normal" x="2411.48" y="-543.6">
    <tspan x="2411.48" y="-543.6">writable()</tspan>
  </text>
  <text style="fill: #000000;text-anchor:start;font-size:36.1244;font-family:sanserif;font-style:normal;font-weight:normal" x="2404.92" y="-420.65">
    <tspan x="2404.92" y="-420.65">3.1</tspan>
  </text>
  <g>
    <rect style="fill: #ffffff" x="1716.92" y="-726.2" width="139.8" height="36"/>
    <rect style="fill: none; fill-opacity:0; stroke-width: 2; stroke: #000000" x="1716.92" y="-726.2" width="139.8" height="36"/>
    <text style="fill: #000000;text-anchor:middle;font-size:12.8;font-family:sanserif;font-style:normal;font-weight:normal" x="1786.82" y="-704.3">
      <tspan x="1786.82" y="-704.3">neubot.application</tspan>
    </text>
    <line style="fill: none; fill-opacity:0; stroke-width: 1; stroke: #000000" x1="1726.92" y1="-701.25" x2="1846.72" y2="-701.25"/>
  </g>
  <g>
    <rect style="fill: #ffffff" x="2610.92" y="-720.2" width="195.7" height="36"/>
    <rect style="fill: none; fill-opacity:0; stroke-width: 2; stroke: #000000" x="2610.92" y="-720.2" width="195.7" height="36"/>
    <text style="fill: #000000;text-anchor:middle;font-size:12.8;font-family:sanserif;font-style:normal;font-weight:normal" x="2708.77" y="-698.3">
      <tspan x="2708.77" y="-698.3">neubot.network.connection</tspan>
    </text>
    <line style="fill: none; fill-opacity:0; stroke-width: 1; stroke: #000000" x1="2620.92" y1="-695.25" x2="2796.62" y2="-695.25"/>
  </g>
  <g>
    <path style="fill: none; fill-opacity:0; stroke-width: 4; stroke: #000000" d="M 2481.67 -573.214 C 2485.17,-549.014 2489.87,-527.99 2461.67,-506.949"/>
    <polygon style="fill: #000000" points="2455.66,-502.464 2460.68,-512.452 2461.67,-506.949 2466.66,-504.436 "/>
    <polygon style="fill: none; fill-opacity:0; stroke-width: 4; stroke: #000000" points="2455.66,-502.464 2460.68,-512.452 2461.67,-506.949 2466.66,-504.436 "/>
  </g>
  <text style="fill: #000000;text-anchor:start;font-size:9.03111;font-family:sanserif;font-style:normal;font-weight:normal" x="2481.92" y="-510.8">
    <tspan x="2481.92" y="-510.8">unset_writable(self)</tspan>
  </text>
  <g>
    <rect style="fill: #ffffff" x="2524.92" y="-499.8" width="161.4" height="36"/>
    <rect style="fill: none; fill-opacity:0; stroke-width: 2; stroke: #000000" x="2524.92" y="-499.8" width="161.4" height="36"/>
    <text style="fill: #000000;text-anchor:middle;font-size:12.8;font-family:sanserif;font-style:normal;font-weight:normal" x="2605.62" y="-477.9">
      <tspan x="2605.62" y="-477.9">neubot.network.poller</tspan>
    </text>
    <line style="fill: none; fill-opacity:0; stroke-width: 1; stroke: #000000" x1="2534.92" y1="-474.85" x2="2676.32" y2="-474.85"/>
  </g>
  <g>
    <rect style="fill: #ffffff" x="2576.12" y="-611.2" width="163.6" height="36"/>
    <rect style="fill: none; fill-opacity:0; stroke-width: 4; stroke: #000000" x="2576.12" y="-611.2" width="163.6" height="36"/>
    <text style="fill: #000000;text-anchor:middle;font-size:12.8;font-family:sanserif;font-style:normal;font-weight:normal" x="2657.92" y="-589.3">
      <tspan x="2657.92" y="-589.3">neubot.http.connector</tspan>
    </text>
    <line style="fill: none; fill-opacity:0; stroke-width: 1; stroke: #000000" x1="2586.12" y1="-586.25" x2="2729.72" y2="-586.25"/>
  </g>
  <g>
    <line style="fill: none; fill-opacity:0; stroke-width: 2; stroke: #000000" x1="2614.54" y1="-500.797" x2="2644.33" y2="-564.245"/>
    <polygon style="fill: #000000" points="2648.85,-562.121 2648.58,-573.298 2639.8,-566.37 "/>
    <polygon style="fill: none; fill-opacity:0; stroke-width: 2; stroke: #000000" points="2648.85,-562.121 2648.58,-573.298 2639.8,-566.37 "/>
  </g>
  <text style="fill: #000000;text-anchor:start;font-size:9.03111;font-family:sanserif;font-style:normal;font-weight:normal" x="2638.48" y="-529.6">
    <tspan x="2638.48" y="-529.6">writable()</tspan>
  </text>
  <text style="fill: #000000;text-anchor:start;font-size:36.1244;font-family:sanserif;font-style:normal;font-weight:normal" x="2572.92" y="-421.65">
    <tspan x="2572.92" y="-421.65">3.2</tspan>
  </text>
  <g>
    <line style="fill: none; fill-opacity:0; stroke-width: 4; stroke: #000000" x1="2666.77" y1="-612.174" x2="2694.85" y2="-672.351"/>
    <polygon style="fill: #000000" points="2699.38,-670.237 2699.07,-681.414 2690.31,-674.465 "/>
    <polygon style="fill: none; fill-opacity:0; stroke-width: 4; stroke: #000000" points="2699.38,-670.237 2699.07,-681.414 2690.31,-674.465 "/>
  </g>
  <text style="fill: #000000;text-anchor:start;font-size:9.03111;font-family:sanserif;font-style:normal;font-weight:normal" x="2688.68" y="-634.55">
    <tspan x="2688.68" y="-634.55">__init__(sock)</tspan>
  </text>
  <g>
    <rect style="fill: #ffffff" x="1726.84" y="-105.25" width="195.7" height="36"/>
    <rect style="fill: none; fill-opacity:0; stroke-width: 2; stroke: #000000" x="1726.84" y="-105.25" width="195.7" height="36"/>
    <text style="fill: #000000;text-anchor:middle;font-size:12.8;font-family:sanserif;font-style:normal;font-weight:normal" x="1824.69" y="-83.35">
      <tspan x="1824.69" y="-83.35">neubot.network.connection</tspan>
    </text>
    <line style="fill: none; fill-opacity:0; stroke-width: 1; stroke: #000000" x1="1736.84" y1="-80.3" x2="1912.54" y2="-80.3"/>
  </g>
  <g>
    <rect style="fill: #ffffff" x="1640.84" y="115.15" width="161.4" height="36"/>
    <rect style="fill: none; fill-opacity:0; stroke-width: 2; stroke: #000000" x="1640.84" y="115.15" width="161.4" height="36"/>
    <text style="fill: #000000;text-anchor:middle;font-size:12.8;font-family:sanserif;font-style:normal;font-weight:normal" x="1721.54" y="137.05">
      <tspan x="1721.54" y="137.05">neubot.network.poller</tspan>
    </text>
    <line style="fill: none; fill-opacity:0; stroke-width: 1; stroke: #000000" x1="1650.84" y1="140.1" x2="1792.24" y2="140.1"/>
  </g>
  <g>
    <rect style="fill: #ffffff" x="1692.04" y="3.75" width="163.6" height="36"/>
    <rect style="fill: none; fill-opacity:0; stroke-width: 4; stroke: #000000" x="1692.04" y="3.75" width="163.6" height="36"/>
    <text style="fill: #000000;text-anchor:middle;font-size:12.8;font-family:sanserif;font-style:normal;font-weight:normal" x="1773.84" y="25.65">
      <tspan x="1773.84" y="25.65">neubot.http.connector</tspan>
    </text>
    <line style="fill: none; fill-opacity:0; stroke-width: 1; stroke: #000000" x1="1702.04" y1="28.7" x2="1845.64" y2="28.7"/>
  </g>
  <g>
    <line style="fill: none; fill-opacity:0; stroke-width: 2; stroke: #000000" x1="1730.46" y1="114.153" x2="1760.25" y2="50.7045"/>
    <polygon style="fill: #000000" points="1764.77,52.8294 1764.5,41.6525 1755.72,48.5797 "/>
    <polygon style="fill: none; fill-opacity:0; stroke-width: 2; stroke: #000000" points="1764.77,52.8294 1764.5,41.6525 1755.72,48.5797 "/>
  </g>
  <text style="fill: #000000;text-anchor:start;font-size:36.1244;font-family:sanserif;font-style:normal;font-weight:normal" x="1682.84" y="193.3">
    <tspan x="1682.84" y="193.3">3.3.1</tspan>
  </text>
  <g>
    <rect style="fill: #ffffff" x="1801.46" y="-212.95" width="149.55" height="36"/>
    <rect style="fill: none; fill-opacity:0; stroke-width: 2; stroke: #000000" x="1801.46" y="-212.95" width="149.55" height="36"/>
    <text style="fill: #000000;text-anchor:middle;font-size:12.8;font-family:sanserif;font-style:normal;font-weight:normal" x="1876.23" y="-191.05">
      <tspan x="1876.23" y="-191.05">neubot.http.adaptor</tspan>
    </text>
    <line style="fill: none; fill-opacity:0; stroke-width: 1; stroke: #000000" x1="1811.46" y1="-188" x2="1941.01" y2="-188"/>
  </g>
  <g>
    <rect style="fill: #ffffff" x="2634.46" y="-341.95" width="151.7" height="36"/>
    <rect style="fill: none; fill-opacity:0; stroke-width: 4; stroke: #000000" x="2634.46" y="-341.95" width="151.7" height="36"/>
    <text style="fill: #000000;text-anchor:middle;font-size:12.8;font-family:sanserif;font-style:normal;font-weight:normal" x="2710.31" y="-320.05">
      <tspan x="2710.31" y="-320.05">neubot.http.protocol</tspan>
    </text>
    <line style="fill: none; fill-opacity:0; stroke-width: 1; stroke: #000000" x1="2644.46" y1="-317" x2="2776.16" y2="-317"/>
  </g>
  <text style="fill: #000000;text-anchor:start;font-size:9.03111;font-family:sanserif;font-style:normal;font-weight:normal" x="1754.4" y="85.35">
    <tspan x="1754.4" y="85.35">writable()</tspan>
  </text>
  <g>
    <path style="fill: none; fill-opacity:0; stroke-width: 4; stroke: #000000" d="M 1837.67 2.77741 C 1931.87,-25.2226 2033.01,-130.285 1933.31,-171.41"/>
    <polygon style="fill: #000000" points="1935.22,-176.032 1924.06,-175.223 1931.4,-166.787 "/>
    <polygon style="fill: none; fill-opacity:0; stroke-width: 4; stroke: #000000" points="1935.22,-176.032 1924.06,-175.223 1931.4,-166.787 "/>
  </g>
  <text style="fill: #000000;text-anchor:start;font-size:9.03111;font-family:sanserif;font-style:normal;font-weight:normal" x="1788.84" y="-25.85">
    <tspan x="1788.84" y="-25.85">__init__(connection)</tspan>
  </text>
  <g>
    <rect style="fill: #ffffff" x="2575.46" y="-212.25" width="149.55" height="36"/>
    <rect style="fill: none; fill-opacity:0; stroke-width: 2; stroke: #000000" x="2575.46" y="-212.25" width="149.55" height="36"/>
    <text style="fill: #000000;text-anchor:middle;font-size:12.8;font-family:sanserif;font-style:normal;font-weight:normal" x="2650.24" y="-190.35">
      <tspan x="2650.24" y="-190.35">neubot.http.adaptor</tspan>
    </text>
    <line style="fill: none; fill-opacity:0; stroke-width: 1; stroke: #000000" x1="2585.46" y1="-187.3" x2="2715.01" y2="-187.3"/>
  </g>
  <g>
    <rect style="fill: #ffffff" x="2414.84" y="115.85" width="161.4" height="36"/>
    <rect style="fill: none; fill-opacity:0; stroke-width: 2; stroke: #000000" x="2414.84" y="115.85" width="161.4" height="36"/>
    <text style="fill: #000000;text-anchor:middle;font-size:12.8;font-family:sanserif;font-style:normal;font-weight:normal" x="2495.54" y="137.75">
      <tspan x="2495.54" y="137.75">neubot.network.poller</tspan>
    </text>
    <line style="fill: none; fill-opacity:0; stroke-width: 1; stroke: #000000" x1="2424.84" y1="140.8" x2="2566.24" y2="140.8"/>
  </g>
  <g>
    <rect style="fill: #ffffff" x="2466.04" y="4.45" width="163.6" height="36"/>
    <rect style="fill: none; fill-opacity:0; stroke-width: 4; stroke: #000000" x="2466.04" y="4.45" width="163.6" height="36"/>
    <text style="fill: #000000;text-anchor:middle;font-size:12.8;font-family:sanserif;font-style:normal;font-weight:normal" x="2547.84" y="26.35">
      <tspan x="2547.84" y="26.35">neubot.http.connector</tspan>
    </text>
    <line style="fill: none; fill-opacity:0; stroke-width: 1; stroke: #000000" x1="2476.04" y1="29.4" x2="2619.64" y2="29.4"/>
  </g>
  <g>
    <line style="fill: none; fill-opacity:0; stroke-width: 2; stroke: #000000" x1="2504.46" y1="114.853" x2="2534.25" y2="51.4045"/>
    <polygon style="fill: #000000" points="2538.77,53.5294 2538.5,42.3525 2529.72,49.2797 "/>
    <polygon style="fill: none; fill-opacity:0; stroke-width: 2; stroke: #000000" points="2538.77,53.5294 2538.5,42.3525 2529.72,49.2797 "/>
  </g>
  <text style="fill: #000000;text-anchor:start;font-size:9.03111;font-family:sanserif;font-style:normal;font-weight:normal" x="2528.4" y="83.05">
    <tspan x="2528.4" y="83.05">writable()</tspan>
  </text>
  <text style="fill: #000000;text-anchor:start;font-size:36.1244;font-family:sanserif;font-style:normal;font-weight:normal" x="2470.84" y="195">
    <tspan x="2470.84" y="195">3.4</tspan>
  </text>
  <g>
    <line style="fill: none; fill-opacity:0; stroke-width: 4; stroke: #000000" x1="2701.51" y1="-304.943" x2="2664.08" y2="-224.146"/>
    <polygon style="fill: #000000" points="2659.55,-226.247 2659.88,-215.072 2668.62,-222.044 "/>
    <polygon style="fill: none; fill-opacity:0; stroke-width: 4; stroke: #000000" points="2659.55,-226.247 2659.88,-215.072 2668.62,-222.044 "/>
  </g>
  <text style="fill: #000000;text-anchor:start;font-size:9.03111;font-family:sanserif;font-style:normal;font-weight:normal" x="2613.84" y="-271.35">
    <tspan x="2613.84" y="-271.35">attach(self)</tspan>
  </text>
  <g>
    <path style="fill: none; fill-opacity:0; stroke-width: 4; stroke: #000000" d="M 2602.18 3.44787 C 2671.38,-20.7521 2893.35,-237.759 2761.49,-299.848"/>
    <polygon style="fill: #000000" points="2763.62,-304.371 2752.44,-304.107 2759.36,-295.324 "/>
    <polygon style="fill: none; fill-opacity:0; stroke-width: 4; stroke: #000000" points="2763.62,-304.371 2752.44,-304.107 2759.36,-295.324 "/>
  </g>
  <text style="fill: #000000;text-anchor:start;font-size:9.03111;font-family:sanserif;font-style:normal;font-weight:normal" x="2569.04" y="-28.75">
    <tspan x="2569.04" y="-28.75">__init__(adaptor)</tspan>
  </text>
  <g>
    <rect style="fill: #ffffff" x="2810.34" y="-106.75" width="139.8" height="36"/>
    <rect style="fill: none; fill-opacity:0; stroke-width: 2; stroke: #000000" x="2810.34" y="-106.75" width="139.8" height="36"/>
    <text style="fill: #000000;text-anchor:middle;font-size:12.8;font-family:sanserif;font-style:normal;font-weight:normal" x="2880.24" y="-84.85">
      <tspan x="2880.24" y="-84.85">neubot.application</tspan>
    </text>
    <line style="fill: none; fill-opacity:0; stroke-width: 1; stroke: #000000" x1="2820.34" y1="-81.8" x2="2940.14" y2="-81.8"/>
  </g>
  <g>
    <rect style="fill: #ffffff" x="2694.34" y="114.65" width="161.4" height="36"/>
    <rect style="fill: none; fill-opacity:0; stroke-width: 2; stroke: #000000" x="2694.34" y="114.65" width="161.4" height="36"/>
    <text style="fill: #000000;text-anchor:middle;font-size:12.8;font-family:sanserif;font-style:normal;font-weight:normal" x="2775.04" y="136.55">
      <tspan x="2775.04" y="136.55">neubot.network.poller</tspan>
    </text>
    <line style="fill: none; fill-opacity:0; stroke-width: 1; stroke: #000000" x1="2704.34" y1="139.6" x2="2845.74" y2="139.6"/>
  </g>
  <g>
    <rect style="fill: #ffffff" x="2745.54" y="3.25" width="163.6" height="36"/>
    <rect style="fill: none; fill-opacity:0; stroke-width: 4; stroke: #000000" x="2745.54" y="3.25" width="163.6" height="36"/>
    <text style="fill: #000000;text-anchor:middle;font-size:12.8;font-family:sanserif;font-style:normal;font-weight:normal" x="2827.34" y="25.15">
      <tspan x="2827.34" y="25.15">neubot.http.connector</tspan>
    </text>
    <line style="fill: none; fill-opacity:0; stroke-width: 1; stroke: #000000" x1="2755.54" y1="28.2" x2="2899.14" y2="28.2"/>
  </g>
  <g>
    <line style="fill: none; fill-opacity:0; stroke-width: 2; stroke: #000000" x1="2783.96" y1="113.653" x2="2813.75" y2="50.2045"/>
    <polygon style="fill: #000000" points="2818.27,52.3294 2818,41.1525 2809.22,48.0797 "/>
    <polygon style="fill: none; fill-opacity:0; stroke-width: 2; stroke: #000000" points="2818.27,52.3294 2818,41.1525 2809.22,48.0797 "/>
  </g>
  <text style="fill: #000000;text-anchor:start;font-size:9.03111;font-family:sanserif;font-style:normal;font-weight:normal" x="2807.9" y="79.85">
    <tspan x="2807.9" y="79.85">writable()</tspan>
  </text>
  <text style="fill: #000000;text-anchor:start;font-size:36.1244;font-family:sanserif;font-style:normal;font-weight:normal" x="2745.34" y="194.8">
    <tspan x="2745.34" y="194.8">3.5</tspan>
  </text>
  <g>
    <line style="fill: none; fill-opacity:0; stroke-width: 4; stroke: #000000" x1="2836.46" y1="2.29004" x2="2865.92" y2="-58.9756"/>
    <polygon style="fill: #000000" points="2870.43,-56.8086 2870.26,-67.9876 2861.42,-61.1426 "/>
    <polygon style="fill: none; fill-opacity:0; stroke-width: 4; stroke: #000000" points="2870.43,-56.8086 2870.26,-67.9876 2861.42,-61.1426 "/>
  </g>
  <text style="fill: #000000;text-anchor:start;font-size:9.03111;font-family:sanserif;font-style:normal;font-weight:normal" x="2871.4" y="-30.35">
    <tspan x="2871.4" y="-30.35">connected(protocol)</tspan>
  </text>
  <g>
    <rect style="fill: #ffffff" x="2083.68" y="-213.55" width="149.55" height="36"/>
    <rect style="fill: none; fill-opacity:0; stroke-width: 4; stroke: #000000" x="2083.68" y="-213.55" width="149.55" height="36"/>
    <text style="fill: #000000;text-anchor:middle;font-size:12.8;font-family:sanserif;font-style:normal;font-weight:normal" x="2158.45" y="-191.65">
      <tspan x="2158.45" y="-191.65">neubot.http.adaptor</tspan>
    </text>
    <line style="fill: none; fill-opacity:0; stroke-width: 1; stroke: #000000" x1="2093.68" y1="-188.6" x2="2223.23" y2="-188.6"/>
  </g>
  <g>
    <rect style="fill: #ffffff" x="2009.08" y="-105.85" width="195.7" height="36"/>
    <rect style="fill: none; fill-opacity:0; stroke-width: 2; stroke: #000000" x="2009.08" y="-105.85" width="195.7" height="36"/>
    <text style="fill: #000000;text-anchor:middle;font-size:12.8;font-family:sanserif;font-style:normal;font-weight:normal" x="2106.93" y="-83.95">
      <tspan x="2106.93" y="-83.95">neubot.network.connection</tspan>
    </text>
    <line style="fill: none; fill-opacity:0; stroke-width: 1; stroke: #000000" x1="2019.08" y1="-80.9" x2="2194.78" y2="-80.9"/>
  </g>
  <g>
    <rect style="fill: #ffffff" x="1923.08" y="114.55" width="161.4" height="36"/>
    <rect style="fill: none; fill-opacity:0; stroke-width: 2; stroke: #000000" x="1923.08" y="114.55" width="161.4" height="36"/>
    <text style="fill: #000000;text-anchor:middle;font-size:12.8;font-family:sanserif;font-style:normal;font-weight:normal" x="2003.78" y="136.45">
      <tspan x="2003.78" y="136.45">neubot.network.poller</tspan>
    </text>
    <line style="fill: none; fill-opacity:0; stroke-width: 1; stroke: #000000" x1="1933.08" y1="139.5" x2="2074.48" y2="139.5"/>
  </g>
  <g>
    <rect style="fill: #ffffff" x="1974.28" y="3.15" width="163.6" height="36"/>
    <rect style="fill: none; fill-opacity:0; stroke-width: 2; stroke: #000000" x="1974.28" y="3.15" width="163.6" height="36"/>
    <text style="fill: #000000;text-anchor:middle;font-size:12.8;font-family:sanserif;font-style:normal;font-weight:normal" x="2056.08" y="25.05">
      <tspan x="2056.08" y="25.05">neubot.http.connector</tspan>
    </text>
    <line style="fill: none; fill-opacity:0; stroke-width: 1; stroke: #000000" x1="1984.28" y1="28.1" x2="2127.88" y2="28.1"/>
  </g>
  <g>
    <line style="fill: none; fill-opacity:0; stroke-width: 2; stroke: #000000" x1="2012.7" y1="113.553" x2="2042.49" y2="50.1045"/>
    <polygon style="fill: #000000" points="2047.01,52.2294 2046.74,41.0525 2037.96,47.9797 "/>
    <polygon style="fill: none; fill-opacity:0; stroke-width: 2; stroke: #000000" points="2047.01,52.2294 2046.74,41.0525 2037.96,47.9797 "/>
  </g>
  <text style="fill: #000000;text-anchor:start;font-size:9.03111;font-family:sanserif;font-style:normal;font-weight:normal" x="2036.64" y="84.75">
    <tspan x="2036.64" y="84.75">writable()</tspan>
  </text>
  <text style="fill: #000000;text-anchor:start;font-size:36.1244;font-family:sanserif;font-style:normal;font-weight:normal" x="1971.08" y="196.7">
    <tspan x="1971.08" y="196.7">3.3.2</tspan>
  </text>
  <g>
    <path style="fill: none; fill-opacity:0; stroke-width: 2; stroke: #000000" d="M 2119.91 2.17795 C 2214.11,-25.822 2315.26,-130.889 2214.61,-172.395"/>
    <polygon style="fill: #000000" points="2216.51,-177.018 2205.36,-176.208 2212.7,-167.773 "/>
    <polygon style="fill: none; fill-opacity:0; stroke-width: 2; stroke: #000000" points="2216.51,-177.018 2205.36,-176.208 2212.7,-167.773 "/>
  </g>
  <text style="fill: #000000;text-anchor:start;font-size:9.03111;font-family:sanserif;font-style:normal;font-weight:normal" x="2081.08" y="-26.45">
    <tspan x="2081.08" y="-26.45">__init__(connection)</tspan>
  </text>
  <g>
    <line style="fill: none; fill-opacity:0; stroke-width: 4; stroke: #000000" x1="2149.37" y1="-176.553" x2="2121.2" y2="-117.672"/>
    <polygon style="fill: #000000" points="2116.69,-119.83 2116.88,-108.652 2125.71,-115.515 "/>
    <polygon style="fill: none; fill-opacity:0; stroke-width: 4; stroke: #000000" points="2116.69,-119.83 2116.88,-108.652 2125.71,-115.515 "/>
  </g>
  <text style="fill: #000000;text-anchor:start;font-size:9.03111;font-family:sanserif;font-style:normal;font-weight:normal" x="2075.08" y="-149.15">
    <tspan x="2075.08" y="-149.15">attach(self)</tspan>
  </text>
  <g>
    <rect style="fill: #ffffff" x="2368.96" y="-212.8" width="149.55" height="36"/>
    <rect style="fill: none; fill-opacity:0; stroke-width: 2; stroke: #000000" x="2368.96" y="-212.8" width="149.55" height="36"/>
    <text style="fill: #000000;text-anchor:middle;font-size:12.8;font-family:sanserif;font-style:normal;font-weight:normal" x="2443.73" y="-190.9">
      <tspan x="2443.73" y="-190.9">neubot.http.adaptor</tspan>
    </text>
    <line style="fill: none; fill-opacity:0; stroke-width: 1; stroke: #000000" x1="2378.96" y1="-187.85" x2="2508.51" y2="-187.85"/>
  </g>
  <g>
    <rect style="fill: #ffffff" x="2208.34" y="115.3" width="161.4" height="36"/>
    <rect style="fill: none; fill-opacity:0; stroke-width: 2; stroke: #000000" x="2208.34" y="115.3" width="161.4" height="36"/>
    <text style="fill: #000000;text-anchor:middle;font-size:12.8;font-family:sanserif;font-style:normal;font-weight:normal" x="2289.04" y="137.2">
      <tspan x="2289.04" y="137.2">neubot.network.poller</tspan>
    </text>
    <line style="fill: none; fill-opacity:0; stroke-width: 1; stroke: #000000" x1="2218.34" y1="140.25" x2="2359.74" y2="140.25"/>
  </g>
  <g>
    <rect style="fill: #ffffff" x="2259.54" y="3.9" width="163.6" height="36"/>
    <rect style="fill: none; fill-opacity:0; stroke-width: 2; stroke: #000000" x="2259.54" y="3.9" width="163.6" height="36"/>
    <text style="fill: #000000;text-anchor:middle;font-size:12.8;font-family:sanserif;font-style:normal;font-weight:normal" x="2341.34" y="25.8">
      <tspan x="2341.34" y="25.8">neubot.http.connector</tspan>
    </text>
    <line style="fill: none; fill-opacity:0; stroke-width: 1; stroke: #000000" x1="2269.54" y1="28.85" x2="2413.14" y2="28.85"/>
  </g>
  <g>
    <line style="fill: none; fill-opacity:0; stroke-width: 2; stroke: #000000" x1="2297.96" y1="114.303" x2="2327.75" y2="50.8545"/>
    <polygon style="fill: #000000" points="2332.27,52.9794 2332,41.8025 2323.22,48.7297 "/>
    <polygon style="fill: none; fill-opacity:0; stroke-width: 2; stroke: #000000" points="2332.27,52.9794 2332,41.8025 2323.22,48.7297 "/>
  </g>
  <text style="fill: #000000;text-anchor:start;font-size:9.03111;font-family:sanserif;font-style:normal;font-weight:normal" x="2321.9" y="85.5">
    <tspan x="2321.9" y="85.5">writable()</tspan>
  </text>
  <text style="fill: #000000;text-anchor:start;font-size:36.1244;font-family:sanserif;font-style:normal;font-weight:normal" x="2256.34" y="197.45">
    <tspan x="2256.34" y="197.45">3.3.3</tspan>
  </text>
  <g>
    <path style="fill: none; fill-opacity:0; stroke-width: 2; stroke: #000000" d="M 2405.17 2.92728 C 2499.37,-25.0727 2600.52,-130.135 2499.89,-171.641"/>
    <polygon style="fill: #000000" points="2501.8,-176.263 2490.64,-175.454 2497.98,-167.019 "/>
    <polygon style="fill: none; fill-opacity:0; stroke-width: 2; stroke: #000000" points="2501.8,-176.263 2490.64,-175.454 2497.98,-167.019 "/>
  </g>
  <text style="fill: #000000;text-anchor:start;font-size:9.03111;font-family:sanserif;font-style:normal;font-weight:normal" x="2368.34" y="-27.7">
    <tspan x="2368.34" y="-27.7">__init__(connection)</tspan>
  </text>
  <text style="fill: #000000;text-anchor:start;font-size:9.03111;font-family:sanserif;font-style:normal;font-weight:normal" x="2342" y="-143.4">
    <tspan x="2342" y="-143.4">set_readable()</tspan>
  </text>
  <g>
    <rect style="fill: #ffffff" x="2298" y="-111.8" width="195.7" height="36"/>
    <rect style="fill: none; fill-opacity:0; stroke-width: 4; stroke: #000000" x="2298" y="-111.8" width="195.7" height="36"/>
    <text style="fill: #000000;text-anchor:middle;font-size:12.8;font-family:sanserif;font-style:normal;font-weight:normal" x="2395.85" y="-89.9">
      <tspan x="2395.85" y="-89.9">neubot.network.connection</tspan>
    </text>
    <line style="fill: none; fill-opacity:0; stroke-width: 1; stroke: #000000" x1="2308" y1="-86.85" x2="2483.7" y2="-86.85"/>
  </g>
  <g>
    <line style="fill: none; fill-opacity:0; stroke-width: 2; stroke: #000000" x1="2434.73" y1="-175.801" x2="2409.03" y2="-121.597"/>
    <polygon style="fill: #000000" points="2405.82,-114.82 2405.58,-125.998 2409.03,-121.597 2414.62,-121.714 "/>
    <polygon style="fill: none; fill-opacity:0; stroke-width: 2; stroke: #000000" points="2405.82,-114.82 2405.58,-125.998 2409.03,-121.597 2414.62,-121.714 "/>
  </g>
  <g>
    <path style="fill: none; fill-opacity:0; stroke-width: 4; stroke: #000000" d="M 2331.64 -74.8072 C 2263,-54.5072 2184.44,66.4948 2249.17,107.836"/>
    <polygon style="fill: #000000" points="2246.48,112.049 2257.6,113.218 2251.86,103.622 "/>
    <polygon style="fill: none; fill-opacity:0; stroke-width: 4; stroke: #000000" points="2246.48,112.049 2257.6,113.218 2251.86,103.622 "/>
  </g>
  <text style="fill: #000000;text-anchor:start;font-size:9.03111;font-family:sanserif;font-style:normal;font-weight:normal" x="2146" y="96.6">
    <tspan x="2146" y="96.6">set_readable(self)</tspan>
  </text>
</svg>
