<?xml version="1.0" encoding="UTF-8" standalone="no"?>
<!DOCTYPE svg PUBLIC "-//W3C//DTD SVG 1.0//EN" "http://www.w3.org/TR/2001/PR-SVG-20010719/DTD/svg10.dtd">
<svg width="32cm" height="29cm" viewBox="2024 -967 635 563" xmlns="http://www.w3.org/2000/svg" xmlns:xlink="http://www.w3.org/1999/xlink">
  <g>
    <rect style="fill: #ffffff" x="2482.88" y="-860.036" width="151.7" height="36"/>
    <rect style="fill: none; fill-opacity:0; stroke-width: 4; stroke: #000000" x="2482.88" y="-860.036" width="151.7" height="36"/>
    <text style="fill: #000000;text-anchor:middle;font-size:12.8;font-family:sanserif;font-style:normal;font-weight:normal" x="2558.73" y="-838.136">
      <tspan x="2558.73" y="-838.136">neubot.http.protocol</tspan>
    </text>
    <line style="fill: none; fill-opacity:0; stroke-width: 1; stroke: #000000" x1="2492.88" y1="-835.086" x2="2624.58" y2="-835.086"/>
  </g>
  <g>
    <rect style="fill: #ffffff" x="2484.32" y="-738.8" width="149.55" height="36"/>
    <rect style="fill: none; fill-opacity:0; stroke-width: 2; stroke: #000000" x="2484.32" y="-738.8" width="149.55" height="36"/>
    <text style="fill: #000000;text-anchor:middle;font-size:12.8;font-family:sanserif;font-style:normal;font-weight:normal" x="2559.09" y="-716.9">
      <tspan x="2559.09" y="-716.9">neubot.http.adaptor</tspan>
    </text>
    <line style="fill: none; fill-opacity:0; stroke-width: 1; stroke: #000000" x1="2494.32" y1="-713.85" x2="2623.87" y2="-713.85"/>
  </g>
  <g>
    <rect style="fill: #ffffff" x="2461.6" y="-617.8" width="195.7" height="36"/>
    <rect style="fill: none; fill-opacity:0; stroke-width: 2; stroke: #000000" x="2461.6" y="-617.8" width="195.7" height="36"/>
    <text style="fill: #000000;text-anchor:middle;font-size:12.8;font-family:sanserif;font-style:normal;font-weight:normal" x="2559.45" y="-595.9">
      <tspan x="2559.45" y="-595.9">neubot.network.connection</tspan>
    </text>
    <line style="fill: none; fill-opacity:0; stroke-width: 1; stroke: #000000" x1="2471.6" y1="-592.85" x2="2647.3" y2="-592.85"/>
  </g>
  <g>
    <rect style="fill: #ffffff" x="2478.3" y="-491.8" width="161.4" height="36"/>
    <rect style="fill: none; fill-opacity:0; stroke-width: 2; stroke: #000000" x="2478.3" y="-491.8" width="161.4" height="36"/>
    <text style="fill: #000000;text-anchor:middle;font-size:12.8;font-family:sanserif;font-style:normal;font-weight:normal" x="2559" y="-469.9">
      <tspan x="2559" y="-469.9">neubot.network.poller</tspan>
    </text>
    <line style="fill: none; fill-opacity:0; stroke-width: 1; stroke: #000000" x1="2488.3" y1="-466.85" x2="2629.7" y2="-466.85"/>
  </g>
  <text style="fill: #000000;text-anchor:start;font-size:9.03111;font-family:sanserif;font-style:normal;font-weight:normal" x="2571.4" y="-528.8">
    <tspan x="2571.4" y="-528.8">closing()</tspan>
  </text>
  <text style="fill: #000000;text-anchor:start;font-size:9.03111;font-family:sanserif;font-style:normal;font-weight:normal" x="2570.4" y="-656.8">
    <tspan x="2570.4" y="-656.8">closing()</tspan>
  </text>
  <text style="fill: #000000;text-anchor:start;font-size:9.03111;font-family:sanserif;font-style:normal;font-weight:normal" x="2567.9" y="-782">
    <tspan x="2567.9" y="-782">closing()</tspan>
  </text>
  <g>
    <rect style="fill: #ffffff" x="2488.4" y="-965.2" width="139.8" height="36"/>
    <rect style="fill: none; fill-opacity:0; stroke-width: 2; stroke: #000000" x="2488.4" y="-965.2" width="139.8" height="36"/>
    <text style="fill: #000000;text-anchor:middle;font-size:12.8;font-family:sanserif;font-style:normal;font-weight:normal" x="2558.3" y="-943.3">
      <tspan x="2558.3" y="-943.3">neubot.application</tspan>
    </text>
    <line style="fill: none; fill-opacity:0; stroke-width: 1; stroke: #000000" x1="2498.4" y1="-940.25" x2="2618.2" y2="-940.25"/>
  </g>
  <text style="fill: #000000;text-anchor:start;font-size:9.03111;font-family:sanserif;font-style:normal;font-weight:normal" x="2570.9" y="-895">
    <tspan x="2570.9" y="-895">closing(self)</tspan>
  </text>
  <g>
    <line style="fill: none; fill-opacity:0; stroke-width: 2; stroke: #000000" x1="2559.39" y1="-618.802" x2="2559.18" y2="-690.798"/>
    <polygon style="fill: #000000" points="2564.18,-690.812 2559.15,-700.798 2554.18,-690.783 "/>
    <polygon style="fill: none; fill-opacity:0; stroke-width: 2; stroke: #000000" points="2564.18,-690.812 2559.15,-700.798 2554.18,-690.783 "/>
  </g>
  <g>
    <line style="fill: none; fill-opacity:0; stroke-width: 2; stroke: #000000" x1="2559.1" y1="-738.8" x2="2558.84" y2="-812.057"/>
    <polygon style="fill: #000000" points="2563.84,-812.075 2558.8,-822.057 2553.84,-812.039 "/>
    <polygon style="fill: none; fill-opacity:0; stroke-width: 2; stroke: #000000" points="2563.84,-812.075 2558.8,-822.057 2553.84,-812.039 "/>
  </g>
  <g>
    <line style="fill: none; fill-opacity:0; stroke-width: 4; stroke: #000000" x1="2558.65" y1="-861.042" x2="2558.43" y2="-916.194"/>
    <polygon style="fill: #000000" points="2563.43,-916.215 2558.39,-926.194 2553.43,-916.174 "/>
    <polygon style="fill: none; fill-opacity:0; stroke-width: 4; stroke: #000000" points="2563.43,-916.215 2558.39,-926.194 2553.43,-916.174 "/>
  </g>
  <g>
    <line style="fill: none; fill-opacity:0; stroke-width: 2; stroke: #000000" x1="2559.08" y1="-492.798" x2="2559.4" y2="-570.8"/>
    <polygon style="fill: #000000" points="2564.4,-570.78 2559.44,-580.8 2554.4,-570.82 "/>
    <polygon style="fill: none; fill-opacity:0; stroke-width: 2; stroke: #000000" points="2564.4,-570.78 2559.44,-580.8 2554.4,-570.82 "/>
  </g>
  <g>
    <rect style="fill: #ffffff" x="2245.3" y="-617.2" width="195.7" height="36"/>
    <rect style="fill: none; fill-opacity:0; stroke-width: 4; stroke: #000000" x="2245.3" y="-617.2" width="195.7" height="36"/>
    <text style="fill: #000000;text-anchor:middle;font-size:12.8;font-family:sanserif;font-style:normal;font-weight:normal" x="2343.15" y="-595.3">
      <tspan x="2343.15" y="-595.3">neubot.network.connection</tspan>
    </text>
    <line style="fill: none; fill-opacity:0; stroke-width: 1; stroke: #000000" x1="2255.3" y1="-592.25" x2="2431" y2="-592.25"/>
  </g>
  <g>
    <rect style="fill: #ffffff" x="2262.02" y="-491.2" width="161.4" height="36"/>
    <rect style="fill: none; fill-opacity:0; stroke-width: 2; stroke: #000000" x="2262.02" y="-491.2" width="161.4" height="36"/>
    <text style="fill: #000000;text-anchor:middle;font-size:12.8;font-family:sanserif;font-style:normal;font-weight:normal" x="2342.72" y="-469.3">
      <tspan x="2342.72" y="-469.3">neubot.network.poller</tspan>
    </text>
    <line style="fill: none; fill-opacity:0; stroke-width: 1; stroke: #000000" x1="2272.02" y1="-466.25" x2="2413.42" y2="-466.25"/>
  </g>
  <text style="fill: #000000;text-anchor:start;font-size:9.03111;font-family:sanserif;font-style:normal;font-weight:normal" x="2388.12" y="-528.2">
    <tspan x="2388.12" y="-528.2">&lt;&lt;exception&gt;&gt;</tspan>
  </text>
  <g>
    <rect style="fill: #ffffff" x="2025.3" y="-617.2" width="195.7" height="36"/>
    <rect style="fill: none; fill-opacity:0; stroke-width: 2; stroke: #000000" x="2025.3" y="-617.2" width="195.7" height="36"/>
    <text style="fill: #000000;text-anchor:middle;font-size:12.8;font-family:sanserif;font-style:normal;font-weight:normal" x="2123.15" y="-595.3">
      <tspan x="2123.15" y="-595.3">neubot.network.connection</tspan>
    </text>
    <line style="fill: none; fill-opacity:0; stroke-width: 1; stroke: #000000" x1="2035.3" y1="-592.25" x2="2211" y2="-592.25"/>
  </g>
  <g>
    <rect style="fill: #ffffff" x="2042.02" y="-491.2" width="161.4" height="36"/>
    <rect style="fill: none; fill-opacity:0; stroke-width: 4; stroke: #000000" x="2042.02" y="-491.2" width="161.4" height="36"/>
    <text style="fill: #000000;text-anchor:middle;font-size:12.8;font-family:sanserif;font-style:normal;font-weight:normal" x="2122.72" y="-469.3">
      <tspan x="2122.72" y="-469.3">neubot.network.poller</tspan>
    </text>
    <line style="fill: none; fill-opacity:0; stroke-width: 1; stroke: #000000" x1="2052.02" y1="-466.25" x2="2193.42" y2="-466.25"/>
  </g>
  <text style="fill: #000000;text-anchor:start;font-size:9.03111;font-family:sanserif;font-style:normal;font-weight:normal" x="2068.12" y="-538.2">
    <tspan x="2068.12" y="-538.2">readable()</tspan>
  </text>
  <g>
    <line style="fill: none; fill-opacity:0; stroke-width: 2; stroke: #000000" x1="2122.8" y1="-492.198" x2="2123.12" y2="-570.2"/>
    <polygon style="fill: #000000" points="2128.12,-570.18 2123.16,-580.2 2118.12,-570.22 "/>
    <polygon style="fill: none; fill-opacity:0; stroke-width: 2; stroke: #000000" points="2128.12,-570.18 2123.16,-580.2 2118.12,-570.22 "/>
  </g>
  <text style="fill: #000000;text-anchor:start;font-size:9.03111;font-family:sanserif;font-style:normal;font-weight:normal" x="2069.3" y="-523.8">
    <tspan x="2069.3" y="-523.8">writable()</tspan>
  </text>
  <g>
    <line style="fill: none; fill-opacity:0; stroke-width: 2; stroke: #000000" x1="2123.12" y1="-618.192" x2="2123" y2="-690.964"/>
    <polygon style="fill: #000000" points="2128,-690.972 2122.98,-700.964 2118,-690.956 "/>
    <polygon style="fill: none; fill-opacity:0; stroke-width: 2; stroke: #000000" points="2128,-690.972 2122.98,-700.964 2118,-690.956 "/>
  </g>
  <text style="fill: #000000;text-anchor:start;font-size:9.03111;font-family:sanserif;font-style:normal;font-weight:normal" x="2135.3" y="-651.8">
    <tspan x="2135.3" y="-651.8">...</tspan>
  </text>
  <text style="fill: #000000;text-anchor:start;font-size:36.1244;font-family:sanserif;font-style:normal;font-weight:normal" x="2096.8" y="-412">
    <tspan x="2096.8" y="-412">1.1</tspan>
  </text>
  <text style="fill: #000000;text-anchor:start;font-size:36.1244;font-family:sanserif;font-style:normal;font-weight:normal" x="2317.3" y="-412.65">
    <tspan x="2317.3" y="-412.65">1.2</tspan>
  </text>
  <g>
    <line style="fill: none; fill-opacity:0; stroke-width: 2; stroke: #000000" x1="2342.78" y1="-492.18" x2="2343.05" y2="-569.22"/>
    <polygon style="fill: #000000" points="2348.05,-569.203 2343.08,-579.22 2338.05,-569.237 "/>
    <polygon style="fill: none; fill-opacity:0; stroke-width: 2; stroke: #000000" points="2348.05,-569.203 2343.08,-579.22 2338.05,-569.237 "/>
  </g>
  <text style="fill: #000000;text-anchor:start;font-size:9.03111;font-family:sanserif;font-style:normal;font-weight:normal" x="2287.3" y="-537.8">
    <tspan x="2287.3" y="-537.8">readable()</tspan>
  </text>
  <text style="fill: #000000;text-anchor:start;font-size:9.03111;font-family:sanserif;font-style:normal;font-weight:normal" x="2288.5" y="-523.4">
    <tspan x="2288.5" y="-523.4">writable()</tspan>
  </text>
  <g>
    <path style="fill: none; fill-opacity:0; stroke-width: 4; stroke: #000000" d="M 2371.23,-502.174 A 72.2647,72.2647 0 0 0 2364.96,-580.2"/>
    <polygon style="fill: #000000" points="2368.14,-504.759 2365.99,-493.787 2376.06,-498.654 "/>
    <polygon style="fill: none; fill-opacity:0; stroke-width: 4; stroke: #000000" points="2368.14,-504.759 2365.99,-493.787 2376.06,-498.654 "/>
  </g>
  <text style="fill: #000000;text-anchor:start;font-size:36.1244;font-family:sanserif;font-style:normal;font-weight:normal" x="2548.3" y="-417.65">
    <tspan x="2548.3" y="-417.65">2</tspan>
  </text>
</svg>
