<?xml version="1.0" encoding="UTF-8" standalone="no"?>
<!DOCTYPE svg PUBLIC "-//W3C//DTD SVG 1.0//EN" "http://www.w3.org/TR/2001/PR-SVG-20010719/DTD/svg10.dtd">
<svg width="65cm" height="32cm" viewBox="1 -1048 1288 640" xmlns="http://www.w3.org/2000/svg" xmlns:xlink="http://www.w3.org/1999/xlink">
  <g>
    <rect style="fill: #ffffff" x="523.5" y="-493" width="161.4" height="36"/>
    <rect style="fill: none; fill-opacity:0; stroke-width: 2; stroke: #000000" x="523.5" y="-493" width="161.4" height="36"/>
    <text style="fill: #000000;text-anchor:middle;font-size:12.8;font-family:sanserif;font-style:normal;font-weight:normal" x="604.2" y="-471.1">
      <tspan x="604.2" y="-471.1">neubot.network.poller</tspan>
    </text>
    <line style="fill: none; fill-opacity:0; stroke-width: 1; stroke: #000000" x1="533.5" y1="-468.05" x2="674.9" y2="-468.05"/>
  </g>
  <g>
    <rect style="fill: #ffffff" x="557.7" y="-613.4" width="195.7" height="36"/>
    <rect style="fill: none; fill-opacity:0; stroke-width: 2; stroke: #000000" x="557.7" y="-613.4" width="195.7" height="36"/>
    <text style="fill: #000000;text-anchor:middle;font-size:12.8;font-family:sanserif;font-style:normal;font-weight:normal" x="655.55" y="-591.5">
      <tspan x="655.55" y="-591.5">neubot.network.connection</tspan>
    </text>
    <line style="fill: none; fill-opacity:0; stroke-width: 1; stroke: #000000" x1="567.7" y1="-588.45" x2="743.4" y2="-588.45"/>
  </g>
  <g>
    <rect style="fill: #ffffff" x="635.7" y="-741.4" width="149.55" height="36"/>
    <rect style="fill: none; fill-opacity:0; stroke-width: 4; stroke: #000000" x="635.7" y="-741.4" width="149.55" height="36"/>
    <text style="fill: #000000;text-anchor:middle;font-size:12.8;font-family:sanserif;font-style:normal;font-weight:normal" x="710.475" y="-719.5">
      <tspan x="710.475" y="-719.5">neubot.http.adaptor</tspan>
    </text>
    <line style="fill: none; fill-opacity:0; stroke-width: 1; stroke: #000000" x1="645.7" y1="-716.45" x2="775.25" y2="-716.45"/>
  </g>
  <g>
    <line style="fill: none; fill-opacity:0; stroke-width: 2; stroke: #000000" x1="612.305" y1="-494.004" x2="643.13" y2="-566.278"/>
    <polygon style="fill: #000000" points="647.729,-564.317 647.053,-575.477 638.531,-568.24 "/>
    <polygon style="fill: none; fill-opacity:0; stroke-width: 2; stroke: #000000" points="647.729,-564.317 647.053,-575.477 638.531,-568.24 "/>
  </g>
  <g>
    <line style="fill: none; fill-opacity:0; stroke-width: 2; stroke: #000000" x1="663.706" y1="-614.408" x2="697.981" y2="-694.284"/>
    <polygon style="fill: #000000" points="702.576,-692.312 701.924,-703.473 693.386,-696.255 "/>
    <polygon style="fill: none; fill-opacity:0; stroke-width: 2; stroke: #000000" points="702.576,-692.312 701.924,-703.473 693.386,-696.255 "/>
  </g>
  <text style="fill: #000000;text-anchor:start;font-size:9.03111;font-family:sanserif;font-style:normal;font-weight:normal" x="574.5" y="-532">
    <tspan x="574.5" y="-532">readable()</tspan>
  </text>
  <text style="fill: #000000;text-anchor:start;font-size:9.03111;font-family:sanserif;font-style:normal;font-weight:normal" x="629.7" y="-655.5">
    <tspan x="629.7" y="-655.5">readable()</tspan>
  </text>
  <g>
    <rect style="fill: #ffffff" x="702.004" y="-897.2" width="151.7" height="36"/>
    <rect style="fill: none; fill-opacity:0; stroke-width: 2; stroke: #000000" x="702.004" y="-897.2" width="151.7" height="36"/>
    <text style="fill: #000000;text-anchor:middle;font-size:12.8;font-family:sanserif;font-style:normal;font-weight:normal" x="777.854" y="-875.3">
      <tspan x="777.854" y="-875.3">neubot.http.protocol</tspan>
    </text>
    <line style="fill: none; fill-opacity:0; stroke-width: 1; stroke: #000000" x1="712.004" y1="-872.25" x2="843.704" y2="-872.25"/>
  </g>
  <g>
    <line style="fill: none; fill-opacity:0; stroke-width: 4; stroke: #000000" x1="718.667" y1="-742.342" x2="764.899" y2="-849.243"/>
    <polygon style="fill: #000000" points="769.488,-847.259 768.868,-858.422 760.309,-851.228 "/>
    <polygon style="fill: none; fill-opacity:0; stroke-width: 4; stroke: #000000" points="769.488,-847.259 768.868,-858.422 760.309,-851.228 "/>
  </g>
  <text style="fill: #000000;text-anchor:start;font-size:9.03111;font-family:sanserif;font-style:normal;font-weight:normal" x="669.004" y="-821.3">
    <tspan x="669.004" y="-821.3">got_metadata()</tspan>
  </text>
  <text style="fill: #000000;text-anchor:start;font-size:9.03111;font-family:sanserif;font-style:normal;font-weight:normal" x="661.004" y="-807.3">
    <tspan x="661.004" y="-807.3">got_body_part()</tspan>
  </text>
  <text style="fill: #000000;text-anchor:start;font-size:9.03111;font-family:sanserif;font-style:normal;font-weight:normal" x="683.004" y="-792.3">
    <tspan x="683.004" y="-792.3">got_body()</tspan>
  </text>
  <g>
    <path style="fill: none; fill-opacity:0; stroke-width: 2; stroke: #000000" d="M 727.243 -704.5 C 812.767,-608.1 813,-701 793.809,-716.491"/>
    <polygon style="fill: #000000" points="796.95,-720.381 786.028,-722.772 790.669,-712.6 "/>
    <polygon style="fill: none; fill-opacity:0; stroke-width: 2; stroke: #000000" points="796.95,-720.381 786.028,-722.772 790.669,-712.6 "/>
  </g>
  <g>
    <rect style="fill: #ffffff" x="209.5" y="-492" width="161.4" height="36"/>
    <rect style="fill: none; fill-opacity:0; stroke-width: 2; stroke: #000000" x="209.5" y="-492" width="161.4" height="36"/>
    <text style="fill: #000000;text-anchor:middle;font-size:12.8;font-family:sanserif;font-style:normal;font-weight:normal" x="290.2" y="-470.1">
      <tspan x="290.2" y="-470.1">neubot.network.poller</tspan>
    </text>
    <line style="fill: none; fill-opacity:0; stroke-width: 1; stroke: #000000" x1="219.5" y1="-467.05" x2="360.9" y2="-467.05"/>
  </g>
  <g>
    <rect style="fill: #ffffff" x="243.7" y="-612.4" width="195.7" height="36"/>
    <rect style="fill: none; fill-opacity:0; stroke-width: 2; stroke: #000000" x="243.7" y="-612.4" width="195.7" height="36"/>
    <text style="fill: #000000;text-anchor:middle;font-size:12.8;font-family:sanserif;font-style:normal;font-weight:normal" x="341.55" y="-590.5">
      <tspan x="341.55" y="-590.5">neubot.network.connection</tspan>
    </text>
    <line style="fill: none; fill-opacity:0; stroke-width: 1; stroke: #000000" x1="253.7" y1="-587.45" x2="429.4" y2="-587.45"/>
  </g>
  <g>
    <rect style="fill: #ffffff" x="322.7" y="-741.4" width="149.55" height="36"/>
    <rect style="fill: none; fill-opacity:0; stroke-width: 4; stroke: #000000" x="322.7" y="-741.4" width="149.55" height="36"/>
    <text style="fill: #000000;text-anchor:middle;font-size:12.8;font-family:sanserif;font-style:normal;font-weight:normal" x="397.475" y="-719.5">
      <tspan x="397.475" y="-719.5">neubot.http.adaptor</tspan>
    </text>
    <line style="fill: none; fill-opacity:0; stroke-width: 1; stroke: #000000" x1="332.7" y1="-716.45" x2="462.25" y2="-716.45"/>
  </g>
  <g>
    <line style="fill: none; fill-opacity:0; stroke-width: 2; stroke: #000000" x1="298.305" y1="-493.004" x2="329.13" y2="-565.278"/>
    <polygon style="fill: #000000" points="333.729,-563.317 333.053,-574.477 324.531,-567.24 "/>
    <polygon style="fill: none; fill-opacity:0; stroke-width: 2; stroke: #000000" points="333.729,-563.317 333.053,-574.477 324.531,-567.24 "/>
  </g>
  <g>
    <line style="fill: none; fill-opacity:0; stroke-width: 2; stroke: #000000" x1="349.787" y1="-613.399" x2="384.863" y2="-694.309"/>
    <polygon style="fill: #000000" points="389.451,-692.32 388.841,-703.484 380.276,-696.298 "/>
    <polygon style="fill: none; fill-opacity:0; stroke-width: 2; stroke: #000000" points="389.451,-692.32 388.841,-703.484 380.276,-696.298 "/>
  </g>
  <text style="fill: #000000;text-anchor:start;font-size:9.03111;font-family:sanserif;font-style:normal;font-weight:normal" x="260.5" y="-531">
    <tspan x="260.5" y="-531">readable()</tspan>
  </text>
  <text style="fill: #000000;text-anchor:start;font-size:9.03111;font-family:sanserif;font-style:normal;font-weight:normal" x="315.7" y="-654.5">
    <tspan x="315.7" y="-654.5">readable()</tspan>
  </text>
  <g>
    <path style="fill: none; fill-opacity:0; stroke-width: 4; stroke: #000000" d="M 414.242 -704.5 C 499.768,-608.1 500,-701 481.588,-715.863"/>
    <polygon style="fill: #000000" points="484.728,-719.753 473.806,-722.144 478.447,-711.972 "/>
    <polygon style="fill: none; fill-opacity:0; stroke-width: 4; stroke: #000000" points="484.728,-719.753 473.806,-722.144 478.447,-711.972 "/>
  </g>
  <text style="fill: #000000;text-anchor:start;font-size:9.03111;font-family:sanserif;font-style:normal;font-weight:normal" x="501.5" y="-693.3">
    <tspan x="501.5" y="-693.3">_parse_metadata()</tspan>
  </text>
  <text style="fill: #000000;text-anchor:start;font-size:9.03111;font-family:sanserif;font-style:normal;font-weight:normal" x="501.5" y="-680.8">
    <tspan x="501.5" y="-680.8">_parse_bounded_body()</tspan>
  </text>
  <text style="fill: #000000;text-anchor:start;font-size:9.03111;font-family:sanserif;font-style:normal;font-weight:normal" x="496.5" y="-666.8">
    <tspan x="496.5" y="-666.8">_parse_chunked_body()</tspan>
  </text>
  <text style="fill: #000000;text-anchor:start;font-size:9.03111;font-family:sanserif;font-style:normal;font-weight:normal" x="482.5" y="-653.8">
    <tspan x="482.5" y="-653.8">_parse_unbounded_body()</tspan>
  </text>
  <g>
    <rect style="fill: #ffffff" x="2.5" y="-492" width="161.4" height="36"/>
    <rect style="fill: none; fill-opacity:0; stroke-width: 2; stroke: #000000" x="2.5" y="-492" width="161.4" height="36"/>
    <text style="fill: #000000;text-anchor:middle;font-size:12.8;font-family:sanserif;font-style:normal;font-weight:normal" x="83.2" y="-470.1">
      <tspan x="83.2" y="-470.1">neubot.network.poller</tspan>
    </text>
    <line style="fill: none; fill-opacity:0; stroke-width: 1; stroke: #000000" x1="12.5" y1="-467.05" x2="153.9" y2="-467.05"/>
  </g>
  <g>
    <rect style="fill: #ffffff" x="36.7" y="-612.4" width="195.7" height="36"/>
    <rect style="fill: none; fill-opacity:0; stroke-width: 2; stroke: #000000" x="36.7" y="-612.4" width="195.7" height="36"/>
    <text style="fill: #000000;text-anchor:middle;font-size:12.8;font-family:sanserif;font-style:normal;font-weight:normal" x="134.55" y="-590.5">
      <tspan x="134.55" y="-590.5">neubot.network.connection</tspan>
    </text>
    <line style="fill: none; fill-opacity:0; stroke-width: 1; stroke: #000000" x1="46.7" y1="-587.45" x2="222.4" y2="-587.45"/>
  </g>
  <g>
    <rect style="fill: #ffffff" x="115.7" y="-741.4" width="149.55" height="36"/>
    <rect style="fill: none; fill-opacity:0; stroke-width: 4; stroke: #000000" x="115.7" y="-741.4" width="149.55" height="36"/>
    <text style="fill: #000000;text-anchor:middle;font-size:12.8;font-family:sanserif;font-style:normal;font-weight:normal" x="190.475" y="-719.5">
      <tspan x="190.475" y="-719.5">neubot.http.adaptor</tspan>
    </text>
    <line style="fill: none; fill-opacity:0; stroke-width: 1; stroke: #000000" x1="125.7" y1="-716.45" x2="255.25" y2="-716.45"/>
  </g>
  <g>
    <line style="fill: none; fill-opacity:0; stroke-width: 2; stroke: #000000" x1="91.3049" y1="-493.004" x2="122.13" y2="-565.278"/>
    <polygon style="fill: #000000" points="126.729,-563.317 126.053,-574.477 117.531,-567.24 "/>
    <polygon style="fill: none; fill-opacity:0; stroke-width: 2; stroke: #000000" points="126.729,-563.317 126.053,-574.477 117.531,-567.24 "/>
  </g>
  <g>
    <line style="fill: none; fill-opacity:0; stroke-width: 2; stroke: #000000" x1="142.787" y1="-613.399" x2="177.863" y2="-694.309"/>
    <polygon style="fill: #000000" points="182.451,-692.32 181.841,-703.484 173.276,-696.298 "/>
    <polygon style="fill: none; fill-opacity:0; stroke-width: 2; stroke: #000000" points="182.451,-692.32 181.841,-703.484 173.276,-696.298 "/>
  </g>
  <text style="fill: #000000;text-anchor:start;font-size:9.03111;font-family:sanserif;font-style:normal;font-weight:normal" x="53.5" y="-531">
    <tspan x="53.5" y="-531">readable()</tspan>
  </text>
  <text style="fill: #000000;text-anchor:start;font-size:9.03111;font-family:sanserif;font-style:normal;font-weight:normal" x="108.7" y="-654.5">
    <tspan x="108.7" y="-654.5">readable()</tspan>
  </text>
  <g>
    <path style="fill: none; fill-opacity:0; stroke-width: 4; stroke: #000000" d="M 193.86 -704.399 C 198.385,-678.999 198.531,-636.994 173.07,-620.044"/>
    <polygon style="fill: #000000" points="170.299,-624.206 164.746,-614.502 175.841,-615.882 "/>
    <polygon style="fill: none; fill-opacity:0; stroke-width: 4; stroke: #000000" points="170.299,-624.206 164.746,-614.502 175.841,-615.882 "/>
  </g>
  <text style="fill: #000000;text-anchor:start;font-size:9.03111;font-family:sanserif;font-style:normal;font-weight:normal" x="204.5" y="-648.8">
    <tspan x="204.5" y="-648.8">recv()</tspan>
  </text>
  <text style="fill: #000000;text-anchor:start;font-size:9.03111;font-family:sanserif;font-style:normal;font-weight:normal" x="812.5" y="-692.3">
    <tspan x="812.5" y="-692.3">_parse_metadata()</tspan>
  </text>
  <text style="fill: #000000;text-anchor:start;font-size:9.03111;font-family:sanserif;font-style:normal;font-weight:normal" x="812.5" y="-679.8">
    <tspan x="812.5" y="-679.8">_parse_bounded_body()</tspan>
  </text>
  <text style="fill: #000000;text-anchor:start;font-size:9.03111;font-family:sanserif;font-style:normal;font-weight:normal" x="807.5" y="-665.8">
    <tspan x="807.5" y="-665.8">_parse_chunked_body()</tspan>
  </text>
  <text style="fill: #000000;text-anchor:start;font-size:9.03111;font-family:sanserif;font-style:normal;font-weight:normal" x="793.5" y="-652.8">
    <tspan x="793.5" y="-652.8">_parse_unbounded_body()</tspan>
  </text>
  <text style="fill: #000000;text-anchor:start;font-size:36.1244;font-family:sanserif;font-style:normal;font-weight:normal" x="56" y="-416">
    <tspan x="56" y="-416">1.1</tspan>
  </text>
  <text style="fill: #000000;text-anchor:start;font-size:36.1244;font-family:sanserif;font-style:normal;font-weight:normal" x="259.5" y="-417.65">
    <tspan x="259.5" y="-417.65">1.2</tspan>
  </text>
  <text style="fill: #000000;text-anchor:start;font-size:36.1244;font-family:sanserif;font-style:normal;font-weight:normal" x="574.5" y="-418.65">
    <tspan x="574.5" y="-418.65">1.3</tspan>
  </text>
  <g>
    <rect style="fill: #ffffff" x="864.5" y="-497" width="161.4" height="36"/>
    <rect style="fill: none; fill-opacity:0; stroke-width: 2; stroke: #000000" x="864.5" y="-497" width="161.4" height="36"/>
    <text style="fill: #000000;text-anchor:middle;font-size:12.8;font-family:sanserif;font-style:normal;font-weight:normal" x="945.2" y="-475.1">
      <tspan x="945.2" y="-475.1">neubot.network.poller</tspan>
    </text>
    <line style="fill: none; fill-opacity:0; stroke-width: 1; stroke: #000000" x1="874.5" y1="-472.05" x2="1015.9" y2="-472.05"/>
  </g>
  <g>
    <rect style="fill: #ffffff" x="898.7" y="-617.4" width="195.7" height="36"/>
    <rect style="fill: none; fill-opacity:0; stroke-width: 2; stroke: #000000" x="898.7" y="-617.4" width="195.7" height="36"/>
    <text style="fill: #000000;text-anchor:middle;font-size:12.8;font-family:sanserif;font-style:normal;font-weight:normal" x="996.55" y="-595.5">
      <tspan x="996.55" y="-595.5">neubot.network.connection</tspan>
    </text>
    <line style="fill: none; fill-opacity:0; stroke-width: 1; stroke: #000000" x1="908.7" y1="-592.45" x2="1084.4" y2="-592.45"/>
  </g>
  <g>
    <rect style="fill: #ffffff" x="976.7" y="-745.4" width="149.55" height="36"/>
    <rect style="fill: none; fill-opacity:0; stroke-width: 2; stroke: #000000" x="976.7" y="-745.4" width="149.55" height="36"/>
    <text style="fill: #000000;text-anchor:middle;font-size:12.8;font-family:sanserif;font-style:normal;font-weight:normal" x="1051.48" y="-723.5">
      <tspan x="1051.48" y="-723.5">neubot.http.adaptor</tspan>
    </text>
    <line style="fill: none; fill-opacity:0; stroke-width: 1; stroke: #000000" x1="986.7" y1="-720.45" x2="1116.25" y2="-720.45"/>
  </g>
  <g>
    <line style="fill: none; fill-opacity:0; stroke-width: 2; stroke: #000000" x1="953.305" y1="-498.004" x2="984.13" y2="-570.278"/>
    <polygon style="fill: #000000" points="988.729,-568.317 988.053,-579.477 979.531,-572.24 "/>
    <polygon style="fill: none; fill-opacity:0; stroke-width: 2; stroke: #000000" points="988.729,-568.317 988.053,-579.477 979.531,-572.24 "/>
  </g>
  <g>
    <line style="fill: none; fill-opacity:0; stroke-width: 2; stroke: #000000" x1="1004.71" y1="-618.408" x2="1038.98" y2="-698.284"/>
    <polygon style="fill: #000000" points="1043.58,-696.312 1042.92,-707.473 1034.39,-700.255 "/>
    <polygon style="fill: none; fill-opacity:0; stroke-width: 2; stroke: #000000" points="1043.58,-696.312 1042.92,-707.473 1034.39,-700.255 "/>
  </g>
  <text style="fill: #000000;text-anchor:start;font-size:9.03111;font-family:sanserif;font-style:normal;font-weight:normal" x="915.5" y="-536">
    <tspan x="915.5" y="-536">readable()</tspan>
  </text>
  <text style="fill: #000000;text-anchor:start;font-size:9.03111;font-family:sanserif;font-style:normal;font-weight:normal" x="970.7" y="-659.5">
    <tspan x="970.7" y="-659.5">readable()</tspan>
  </text>
  <g>
    <rect style="fill: #ffffff" x="1043" y="-901.2" width="151.7" height="36"/>
    <rect style="fill: none; fill-opacity:0; stroke-width: 4; stroke: #000000" x="1043" y="-901.2" width="151.7" height="36"/>
    <text style="fill: #000000;text-anchor:middle;font-size:12.8;font-family:sanserif;font-style:normal;font-weight:normal" x="1118.85" y="-879.3">
      <tspan x="1118.85" y="-879.3">neubot.http.protocol</tspan>
    </text>
    <line style="fill: none; fill-opacity:0; stroke-width: 1; stroke: #000000" x1="1053" y1="-876.25" x2="1184.7" y2="-876.25"/>
  </g>
  <g>
    <line style="fill: none; fill-opacity:0; stroke-width: 2; stroke: #000000" x1="1059.67" y1="-746.342" x2="1106.3" y2="-854.161"/>
    <polygon style="fill: #000000" points="1110.88,-852.177 1110.26,-863.34 1101.71,-856.146 "/>
    <polygon style="fill: none; fill-opacity:0; stroke-width: 2; stroke: #000000" points="1110.88,-852.177 1110.26,-863.34 1101.71,-856.146 "/>
  </g>
  <text style="fill: #000000;text-anchor:start;font-size:9.03111;font-family:sanserif;font-style:normal;font-weight:normal" x="1010" y="-825.3">
    <tspan x="1010" y="-825.3">got_metadata()</tspan>
  </text>
  <text style="fill: #000000;text-anchor:start;font-size:9.03111;font-family:sanserif;font-style:normal;font-weight:normal" x="1002" y="-811.3">
    <tspan x="1002" y="-811.3">got_body_part()</tspan>
  </text>
  <text style="fill: #000000;text-anchor:start;font-size:9.03111;font-family:sanserif;font-style:normal;font-weight:normal" x="1024" y="-796.3">
    <tspan x="1024" y="-796.3">got_body()</tspan>
  </text>
  <g>
    <path style="fill: none; fill-opacity:0; stroke-width: 2; stroke: #000000" d="M 1068.24 -708.5 C 1153.77,-612.1 1154,-705 1134.81,-720.491"/>
    <polygon style="fill: #000000" points="1137.95,-724.381 1127.03,-726.772 1131.67,-716.6 "/>
    <polygon style="fill: none; fill-opacity:0; stroke-width: 2; stroke: #000000" points="1137.95,-724.381 1127.03,-726.772 1131.67,-716.6 "/>
  </g>
  <text style="fill: #000000;text-anchor:start;font-size:9.03111;font-family:sanserif;font-style:normal;font-weight:normal" x="1153.5" y="-696.3">
    <tspan x="1153.5" y="-696.3">_parse_metadata()</tspan>
  </text>
  <text style="fill: #000000;text-anchor:start;font-size:9.03111;font-family:sanserif;font-style:normal;font-weight:normal" x="1153.5" y="-683.8">
    <tspan x="1153.5" y="-683.8">_parse_bounded_body()</tspan>
  </text>
  <text style="fill: #000000;text-anchor:start;font-size:9.03111;font-family:sanserif;font-style:normal;font-weight:normal" x="1148.5" y="-669.8">
    <tspan x="1148.5" y="-669.8">_parse_chunked_body()</tspan>
  </text>
  <text style="fill: #000000;text-anchor:start;font-size:9.03111;font-family:sanserif;font-style:normal;font-weight:normal" x="1134.5" y="-656.8">
    <tspan x="1134.5" y="-656.8">_parse_unbounded_body()</tspan>
  </text>
  <text style="fill: #000000;text-anchor:start;font-size:36.1244;font-family:sanserif;font-style:normal;font-weight:normal" x="917.5" y="-424.65">
    <tspan x="917.5" y="-424.65">1.4</tspan>
  </text>
  <g>
    <rect style="fill: #ffffff" x="1111.5" y="-1046.2" width="139.8" height="36"/>
    <rect style="fill: none; fill-opacity:0; stroke-width: 2; stroke: #000000" x="1111.5" y="-1046.2" width="139.8" height="36"/>
    <text style="fill: #000000;text-anchor:middle;font-size:12.8;font-family:sanserif;font-style:normal;font-weight:normal" x="1181.4" y="-1024.3">
      <tspan x="1181.4" y="-1024.3">neubot.application</tspan>
    </text>
    <line style="fill: none; fill-opacity:0; stroke-width: 1; stroke: #000000" x1="1121.5" y1="-1021.25" x2="1241.3" y2="-1021.25"/>
  </g>
  <g>
    <line style="fill: none; fill-opacity:0; stroke-width: 4; stroke: #000000" x1="1127.05" y1="-902.192" x2="1168.45" y2="-998.189"/>
    <polygon style="fill: #000000" points="1173.05,-996.209 1172.42,-1007.37 1163.86,-1000.17 "/>
    <polygon style="fill: none; fill-opacity:0; stroke-width: 4; stroke: #000000" points="1173.05,-996.209 1172.42,-1007.37 1163.86,-1000.17 "/>
  </g>
  <text style="fill: #000000;text-anchor:start;font-size:9.03111;font-family:sanserif;font-style:normal;font-weight:normal" x="1175.5" y="-962.8">
    <tspan x="1175.5" y="-962.8">got_message(self)</tspan>
  </text>
  <text style="fill: #000000;text-anchor:start;font-size:9.03111;font-family:sanserif;font-style:normal;font-weight:normal" x="1169.5" y="-948.8">
    <tspan x="1169.5" y="-948.8">got_metadata(self)</tspan>
  </text>
  <text style="fill: #000000;text-anchor:start;font-size:9.03111;font-family:sanserif;font-style:normal;font-weight:normal" x="1158.5" y="-935.8">
    <tspan x="1158.5" y="-935.8">is_message_unbounded(self)</tspan>
  </text>
</svg>
